<?xml version="1.0" standalone="no"?>
<!DOCTYPE svg PUBLIC "-//W3C//DTD SVG 1.1//EN" "http://www.w3.org/Graphics/SVG/1.1/DTD/svg11.dtd" >
<!--
2013-9-30: Created.
-->
<svg>
<metadata>
Created by iconfont
</metadata>
<defs>

<font id="iconfont" horiz-adv-x="1024" >
  <font-face
    font-family="iconfont"
    font-weight="500"
    font-stretch="normal"
    units-per-em="1024"
    ascent="896"
    descent="-128"
  />
    <missing-glyph />
    
    <glyph glyph-name="mobile" unicode="&#58943;" d="M900.135587-8.575980999999956M726.087197-97.05271200000004l-428.084081 0c-25.347876 0-45.894106 22.277231-45.894106 49.762517L252.109011 815.275143c0 27.485286 20.54623 49.747464 45.894106 49.747464l428.084081 0c25.317772 0 45.818845-22.262178 45.818845-49.747464l0-862.565339C771.906041-74.76042900000004 751.404968-97.05271200000004 726.087197-97.05271200000004zM512.180626-47.29019600000004c16.888549 0 30.586036 14.856504 30.586036 33.190063 0 18.303454-13.697486 33.159959-30.586036 33.159959-16.918654 0-30.601088-14.856504-30.601088-33.159959C481.579538-32.43369099999995 495.277025-47.29019600000004 512.180626-47.29019600000004zM726.087197 765.527679l-15.277966 0L313.311186 765.527679l-15.30807 0 0-696.720388 15.30807 0 397.513097 0 15.277966 0L726.102249 765.527679z"  horiz-adv-x="1024" />

    
    <glyph glyph-name="yjs" unicode="&#58951;" d="M100.48922851 147.06828514999995c8.81720661 9.35045347 23.68059733 9.35045347 32.49780395 0 9.09663687-8.56222606 9.09663687-23.42678073 0-33.0566656l-57.52549035-57.27167374c-9.09547293-9.35045347-24.24062293-9.35045347-33.0310508 0-9.12225166 9.09663687-9.12225166 23.68059733 0 33.03105081L100.48922851 147.06828514999995 100.48922851 147.06828514999995zM824.23482595 550.63740075L824.23482595 550.63740075c0-79.83454777-64.69056171-144.27129287-144.52510947-144.27129288s-144.80453973 64.4367451-144.80453973 144.27129288c0 79.25123527 64.96999197 144.24567808 144.80453973 144.24567808S824.23482595 630.47194851 824.23482595 550.63740075L824.23482595 550.63740075zM679.70971648 648.63960861L679.70971648 648.63960861c-54.22238493 0-97.97659307-43.50039154-97.97659307-98.00220786 0-53.96856832 43.75420814-97.46895986 97.97659307-97.46895986 53.96856832 0 98.02782151 43.50039154 98.02782151 97.46895986C777.73637405 605.14038101 733.6782848 648.63960861 679.70971648 648.63960861L679.70971648 648.63960861zM146.19945187 231.57864221L146.19945187 231.57864221c0 29.98292594 1.65213411 59.45705586 5.5141012 89.43881784 1.62652046 10.49379157 2.74424377 20.93635357 4.67580928 31.40685938l-8.25834496-3.30310542c-19.00478805-7.7250981-36.61475043-19.00711709-52.31643421-33.59224036-15.67723293-14.33014386-40.19728611-13.49185081-54.78124657 1.90595072-2.74424377 3.58253568-5.23467093 6.6318245-6.60620971 10.21436018-24.21384419 48.17503687-31.9133275 102.39742179-23.65614649 154.40997376 8.25834496 51.75757255 31.9133275 100.51708473 71.57620281 140.12989554l0 0 0 0c35.77529458 36.63920128 80.64722489 59.45705586 127.1456768 69.67141604 39.66287531 8.25834496 80.41902307 7.16507136 120.05744867-3.04928882l7.13945771 7.16507136 0.58447645 1.09210851-0.58447645 0c83.69651371 83.16326685 185.02744064 139.57103389 291.82124032 168.20687076 110.65576562 30.03299043 227.38449522 30.03299043 338.06471168 0 14.05071246-3.58253568 24.21500814-14.30569301 27.79754382-27.51811357l0-0.55886165 0-0.27943026c29.44851513-110.37633536 29.44851513-226.84891933-0.27943025-337.22641863-28.61022208-106.53881913-85.04360391-208.37854322-168.46068736-291.51619527l-2.49042717-2.76985742-5.4884864-4.95523954c10.72315733-39.10284971 11.56145038-80.36779463 3.02367403-120.03183389-9.90931513-46.24463531-33.0566656-90.83480747-69.39198464-126.91631104l-2.18421704-2.21216085c-39.1051776-37.96067555-87.53403107-61.38745629-137.94567736-69.62018645-52.57141475-8.00336441-107.07322994-0.27943026-156.08655872 24.21500814-18.72652174 9.35045347-26.42483997 33.03105081-17.04877284 52.03700281 1.62652046 3.02367403 3.86196707 6.32677945 6.58059606 9.09663687 14.33130781 15.39780153 25.8915931 33.28603136 33.61552725 52.0381679l3.30310542 8.51099648c-10.46817678-1.93156551-21.49637917-3.58253568-31.93894229-4.95291165-30.84683264-4.14256128-61.66688768-5.51526514-92.51372032-5.23583488-10.44256199 0-19.79301547 4.11578254-26.95808797 10.74760818l0 0L156.92260921 201.01240377C148.94485959 209.52340025 145.08172857 220.27217237000002 146.19945187 231.57864221L146.19945187 231.57864221zM228.22054571 310.85432718000004L228.22054571 310.85432718000004c-2.71979293-22.02962717-4.39637789-44.33868459-4.92962475-66.08888035l150.31864093-150.57245753c22.00401237 0.53324686 44.0336384 2.46481237 66.03765077 5.23467093 26.72988615 3.55692089 53.71475171 8.53777522 79.83454777 16.23609458 3.86196707 1.09210851 8.25834496 1.65213411 12.39974229 1.37153991 21.21694891-0.53324686 38.26572174-18.72652174 37.14799843-40.19728611-1.09210851-30.00737678-7.67386851-59.45705586-19.23415381-87.81346134-4.42082873-9.62988487-9.37606827-19.81863026-14.88900551-29.44851513 20.93635357-4.70025899 42.68654933-5.23467093 64.15614976-1.11772331 34.96261632 5.79353259 68.52807794 21.49637917 96.07064235 48.17503688l1.37270385 1.67658496c25.61099776 25.0276864 41.31384547 56.43338069 48.19948658 88.62613959 7.67386851 33.59107641 4.67580928 68.83312299-7.72393301 101.30531214-5.51410119 13.77128221-1.65213411 31.10064925 10.44256199 41.84825742l12.12031204 11.58590009 9.65549852 9.88370034 1.37153991 1.39715356c74.32161053 73.76158493 123.86935011 163.22601643 148.64205597 256.55357896 24.24062293 90.02329315 26.45045475 185.53507385 5.51410119 276.67725425-90.83713536 20.37749191-185.56068864 18.16882403-275.83896235-5.76791779-94.16469049-25.35718229-183.34969173-75.15757454-257.1380554-148.94710216l-10.74760817-10.44256198-0.25381661 0-10.44256199-11.5859001c-10.49379157-12.3741275-27.54372835-17.63324814-43.24541099-11.28201898-32.4733531 12.3741275-67.99483107 14.61190315-101.02588188 7.44450276-32.47218915-6.6318245-63.59845319-22.86791907-88.93118464-48.17503688l0 0.25381661c-27.79637987-27.79754382-44.31190585-61.66688768-49.82717098-98.00220786-3.58253568-20.65692331-3.30310542-42.66093454 1.1177233-63.87788345 9.90931513 5.53971598 19.81863026 10.74760818 29.72794539 14.89016946 28.07697522 11.56145038 57.2472229 17.60996238 86.97516942 19.5392 4.14139733 0 8.84165632-0.27943026 12.67800861-1.92923648 20.93635357-4.95640349 32.49780395-26.96041586 26.9592519-47.33790777C237.59544889 364.51785044999997 232.0813477 337.53414883000005 228.22054571 310.85432718000004L228.22054571 310.85432718000004zM243.64279808 4.169696140000042L243.64279808 4.169696140000042c8.81720661 9.07102322 23.40116594 9.07102322 32.49780395 0 9.37606827-9.09663687 9.37606827-23.68059733 0-32.75161941l-57.80492061-57.8305354c-9.09663687-8.79159182-23.68059733-8.79159182-32.47218915 0-9.37606827 8.81720661-9.37606827 24.24062293 0 32.75161942L243.64279808 4.169696140000042 243.64279808 4.169696140000042zM172.06659527 76.02533034999999L172.06659527 76.02533034999999c8.81604267 8.81720661 23.40116594 8.81720661 32.49780395 0 9.37606827-9.37606827 9.37606827-23.96002759 0-33.0566656L73.50436181-88.31840939000006c-9.07102322-9.09663687-23.65498254-9.09663687-32.47218915 0-9.62988487 9.35045347-9.62988487 23.96002759 0 33.03105081L172.06659527 76.02533034999999 172.06659527 76.02533034999999z"  horiz-adv-x="1024" />

    
    <glyph glyph-name="yidongicon" unicode="&#58935;" d="M174.297187-64.158996l232.070496 0c27.459399 0 49.721425 22.261003 49.721425 49.723471l0 18.684548 393.612683 0c27.463492 0 49.723471 22.261003 49.723471 49.723471l0.001023 0L899.426285 782.437571c0 27.461445-22.261003 49.722448-49.722448 49.722448L386.532939 832.16002c-27.458375 0-49.719378-22.25998-49.719378-49.722448l0-157.255557L174.297187 625.182015c-27.461445 0-49.723471-22.261003-49.723471-49.721425l0-589.896114C124.573715-41.901063 146.836765-64.158996 174.297187-64.158996zM290.3309-41.356664c-15.498996 0-28.065196 12.562107-28.065196 28.064172 0 15.498996 12.5662 28.065196 28.065196 28.065196 15.500019 0 28.065196-12.565177 28.065196-28.065196C318.396095-28.794557 305.831942-41.356664 290.3309-41.356664zM618.119411 19.684574c-12.785188 0-23.152303 10.364045-23.152303 23.152303 0 12.785188 10.367115 23.152303 23.152303 23.152303 12.786211 0 23.151279-10.367115 23.151279-23.152303C641.27069 30.048619 630.905622 19.684574 618.119411 19.684574zM609.932961 794.738735l16.370853 0c4.843308 0 8.769734-3.927449 8.769734-8.769734 0-4.843308-3.926426-8.769734-8.769734-8.769734l-16.370853 0c-4.842285 0-8.769734 3.926426-8.769734 8.769734C601.163227 790.811286 605.08863 794.738735 609.932961 794.738735zM367.289666 744.454492l501.657444 0 0-656.014998L456.089108 88.439494 456.089108 575.459566c0 27.459399-22.25998 49.721425-49.721425 49.721425l-39.078017 0L367.289666 744.454492zM281.561166 597.115795l17.540492 0c2.907213 0 5.262864-2.355651 5.262864-5.262864 0-2.90619-2.355651-5.26184-5.262864-5.26184l-17.540492 0c-2.905166 0-5.262864 2.355651-5.262864 5.26184C276.298302 594.760145 278.655999 597.115795 281.561166 597.115795zM251.742023 570.80557l77.177753 0c3.63376 0 6.577812-2.945075 6.577812-6.577812s-2.944052-6.577812-6.577812-6.577812l-77.177753 0c-3.631714 0-6.577812 2.944052-6.577812 6.577812S248.110309 570.80557 251.742023 570.80557zM155.268808 519.938042l270.124184 0 0-487.624846L155.268808 32.313196 155.268808 519.938042z"  horiz-adv-x="1024" />

    
    <glyph glyph-name="linshi" unicode="&#58883;" d="M510.844518 38.146098C320.61575 38.146098 165.781209 192.980639 165.781209 383.209407c0 190.228768 154.834541 345.063309 345.063309 345.063309 190.228768 0 345.063309-154.834541 345.063309-345.063309C855.907828 192.980639 701.194916 38.146098 510.844518 38.146098L510.844518 38.146098zM510.844518 695.432712C338.738568 695.432712 198.621214 555.315358 198.621214 383.209407c0-172.105951 140.117354-312.223304 312.223304-312.223304 172.105951 0 312.223304 140.117354 312.223304 312.223304C823.067823 555.315358 683.072099 695.432712 510.844518 695.432712L510.844518 695.432712zM321.345528 493.892386l39.651265 0c8.392446 1.702815 12.041335-3.284 10.825039-14.838817l0-207.135289c0-8.270816-2.432593-13.136002-7.176149-14.838817l-41.47571 0c-5.959853 3.284-9.608742 6.568001-10.825039 9.852001L312.344934 474.188383C312.344934 487.324385 315.264046 493.892386 321.345528 493.892386zM398.701984 576.357287l41.597339 0c6.93289 3.52726 10.46015-1.824445 10.46015-16.176743L450.759473 185.68286c0.973037-10.825039-1.459556-16.176743-7.419408-16.176743l-43.178525 0c-4.986816-1.216296-7.905927 0.608148-8.878964 5.351704L391.282575 556.653284C391.160945 569.789286 393.715168 576.357287 398.701984 576.357287zM520.818149 574.776102l22.501485 0c11.311557 1.216296 18.122817-1.824445 20.67704-9.365483-8.757335-12.527854-6.93289-17.514669 5.594964-15.082076l146.563725 0c8.757335 0 13.136002-4.378667 13.136002-13.136002l0-22.501485c2.554223-10.095261-1.824445-14.473928-13.136002-13.136002L556.577266 501.555054c-11.311557 2.554223-20.068892-2.554223-26.272004-15.082076-7.541038-17.514669-16.906521-27.60993-28.218078-30.042523l-22.501485 0c-11.311557 1.216296-16.906521 5.594964-16.906521 13.136002l0 16.906521c-1.216296 15.082076 0.608148 23.109633 5.594964 24.447559 11.311557 4.986816 17.514669 10.581779 18.730966 16.906521l16.906521 26.272004C508.898444 567.843212 514.615037 574.776102 520.818149 574.776102zM490.775627 358.640219l216.014253 0c13.74415 0 20.67704-9.365483 20.67704-28.218078l0-129.657204c0-21.285188-12.527854-32.596745-37.583561-33.813042l-189.74225 0c-18.730966 0-27.60993 4.986816-26.272004 15.082076L473.869106 339.909253C473.869106 351.22081 479.464069 357.423922 490.775627 358.640219zM581.024825 210.252049l0 105.209645L524.588668 315.461694l0-105.209645L581.024825 210.252049zM564.118304 469.566457l24.447559 0c15.082076-1.216296 20.67704-4.986816 16.906521-11.311557l0-30.042523L693.653878 428.212377c8.757335 1.216296 12.527854-2.554223 11.311557-11.311557l0-24.447559c1.216296-6.324742-7.541038-9.365483-26.272004-9.365483l-78.937641 0c-27.60993 0-44.516451 10.581779-50.719563 31.988597l0 37.583561C549.036228 462.633567 554.023043 468.35016 564.118304 469.566457zM674.922912 210.252049l0 105.209645-45.124599 0 0-105.209645L674.922912 210.252049z"  horiz-adv-x="1024" />

    
    <glyph glyph-name="jhj" unicode="&#59005;" d="M984.064 258.55999999999995c0 2.048 0 4.096-0.496 5.632L902.144 762.3679999999999c-3.072 18.944-11.76 37.376-24.064 49.664a73.328 73.328 0 0 1-53.248 22.016H199.68A79.52 79.52 0 0 1 144.384 811.52a78.4 78.4 0 0 1-22.016-52.736L40.96 267.264c-0.512-3.584-1.024-6.144-1.024-9.216v-209.92c2.56-37.872 26.624-70.656 66.048-80.896l0.512-0.512h2.048l1.024-0.496 1.024-0.528h1.024l0.512-0.496h1.536l5.632-0.512 2.56-0.512h1.024l1.024-0.496h773.12c48.128 0 87.024 39.408 87.024 87.552V258.55999999999995h0.016z m-806.4 512c0.512 2.048 0.512 4.096 0.512 6.144 0 1.536 0.512 2.56 1.536 3.584s2.56 2.048 4.096 2.048H844.8c0.512 0 1.008 0 1.552-1.024 2.56-2.56 4.096-6.144 4.592-10.752l67.6-447.744c-2.56 0.512-4.608 0.512-6.656 0.512H122.368c-2.048 0-4.608 0-6.656-0.512L177.664 770.56z m754.672-728.576a14.864 14.864 0 0 0-14.848-14.864H105.984c-7.168 0.528-13.312 5.12-14.336 12.816v0.496h-0.512v215.04a15.2 15.2 0 0 0 15.36 14.336h810.496a12.96 12.96 0 0 0 10.24-4.608c2.544-2.56 4.608-6.16 4.608-9.728v-213.504h0.496zM783.232 135.168h95.104v-48.64h-95.104zM783.232 210.43200000000002h95.104v-48.656h-95.104zM624.128 135.168h95.104v-48.64h-95.104zM624.128 210.43200000000002h95.104v-48.656h-95.104zM458.432 135.168h95.12v-48.64h-95.12zM458.432 210.43200000000002h95.12v-48.656h-95.12zM299.328 135.168h95.104v-48.64h-95.104zM299.328 210.43200000000002h95.104v-48.656h-95.104zM430.592 406.016c8.192 0 16.384 14.848 21.504 21.504l43.52 65.024-43.52 43.52-43.008-65.024H322.56c-15.36 0-21.504-14.848-21.504-30.72s6.144-34.304 21.504-34.304h108.032zM712.192 471.04H604.16l-151.552 216.576c-5.12 0.512-13.312 0-21.504 0h-87.04v43.52l-86.528-87.04 86.528-65.024v43.52h84.992L560.64 427.52c5.104-6.656 13.312-21.504 21.504-21.504h123.392c15.376 0 28.16 13.312 28.16 29.696 0.528 16.384-5.632 35.328-21.504 35.328zM690.688 687.616H604.16c-8.704 0-28.16-9.216-33.776-15.872l-53.264-49.152 43.52-43.52 43.52 43.52h86.528v-43.52l86.528 65.024-86.528 86.528v-43.008zM198 154.11199999999997m-32 0a32 32 0 1 1 64 0 32 32 0 1 1-64 0Z"  horiz-adv-x="1024" />

    
    <glyph glyph-name="cpe" unicode="&#58926;" d="M837.818182 104.72727299999997c0-25.669818-20.875636-46.545455-46.545455-46.545455H232.727273c-25.669818 0-46.545455 20.875636-46.545455 46.545455v93.090909h651.636364v-93.090909zM248.576 669.975273A46.778182 46.778182 0 0 0 294.632727 709.818182h434.734546a46.778182 46.778182 0 0 0 46.056727-39.842909L837.329455 244.36363600000004H186.670545l61.905455 425.611637z m572.904727 6.702545A93.090909 93.090909 0 0 1 729.367273 756.363636H294.632727a93.090909 93.090909 0 0 1-92.113454-79.685818L139.636364 244.36363600000004v-139.636363a93.090909 93.090909 0 0 1 93.090909-93.090909h558.545454a93.090909 93.090909 0 0 1 93.090909 93.090909v139.636363L821.480727 676.677818zM256 151.27272700000003h46.545455v-46.545454h-46.545455v46.545454z m93.090909 0h46.545455v-46.545454h-46.545455v46.545454z m93.090909 0h46.545455v-46.545454h-46.545455v46.545454z m93.090909 0h46.545455v-46.545454h-46.545455v46.545454z m93.090909 0h46.545455v-46.545454h-46.545455v46.545454z m93.090909 0h46.545455v-46.545454h-46.545455v46.545454zM454.842182 395.682909c-12.404364-8.610909-26.763636-12.893091-43.124364-12.893091-20.48 0-36.026182 7.028364-46.661818 21.061818-10.635636 14.033455-15.965091 34.350545-15.965091 60.951273 0 25.693091 5.143273 45.800727 15.453091 60.322909 10.309818 14.522182 26.042182 21.783273 47.173818 21.783273 7.610182 0 15.150545-0.977455 22.621091-2.909091 7.470545-1.954909 13.498182-4.514909 18.036364-7.726545l-6.050909-14.452364a68.933818 68.933818 0 0 1-34.606546 8.96c-14.568727 0-25.390545-5.282909-32.488727-15.848727-7.098182-10.565818-10.635636-27.275636-10.635636-50.129455 0-43.915636 14.359273-65.861818 43.124363-65.861818 12.171636 0 24.645818 3.723636 37.399273 11.170909l5.725091-14.429091z m23.109818 148.200727h40.098909c15.150545 0 27.298909-3.816727 36.398546-11.403636 9.122909-7.633455 13.684364-18.152727 13.684363-31.511273 0-13.428364-4.538182-24.157091-13.614545-32.186182-9.076364-8.029091-20.968727-12.055273-35.677091-12.055272h-22.528v-70.912h-18.385455V543.883636z m18.385455-71.144727h19.921454c21.573818 0 32.372364 9.053091 32.372364 27.112727 0 8.378182-2.932364 15.127273-8.797091 20.293819-5.864727 5.143273-13.428364 7.726545-22.690909 7.726545h-20.829091v-55.133091zM674.909091 385.815273h-82.571636V543.883636h81.92v-16.011636h-63.534546v-48.965818h61.044364v-16.011637h-61.044364v-61.044363H674.909091v-16.034909z"  horiz-adv-x="1024" />

    
    <glyph glyph-name="loading" unicode="&#59018;" d="M511.212308 629.76a133.12 133.12 0 1 0 0 266.24 133.12 133.12 0 0 0 0-266.24z m-283.569231-105.787077a121.698462 121.698462 0 1 0 0 243.396923 121.698462 121.698462 0 0 0 0-243.396923zM107.362462 248.75323100000003a107.362462 107.362462 0 1 0 0 214.724923 107.362462 107.362462 0 0 0 0-214.724923z m120.359384-272.462769a90.978462 90.978462 0 1 0 0 181.956923 90.978462 90.978462 0 0 0 0-181.956923z m283.490462-104.054154a79.320615 79.320615 0 1 0 0 158.72 79.320615 79.320615 0 0 0 0-158.72z m287.66523 134.144a64.196923 64.196923 0 1 0 0 128.393846 64.196923 64.196923 0 0 0 0-128.393846z m117.76 296.644923a52.617846 52.617846 0 1 0 0 105.314461 52.617846 52.617846 0 0 0 0-105.314461z m-158.72 338.707692a40.96 40.96 0 1 0 81.92 0.315077 40.96 40.96 0 0 0-81.92-0.315077z"  horiz-adv-x="1024" />

    
    <glyph glyph-name="server" unicode="&#59051;" d="M960 853.333333H64c-12.8 0-21.333333-8.533333-21.333333-21.333333v-896c0-12.8 8.533333-21.333333 21.333333-21.333333h896c12.8 0 21.333333 8.533333 21.333333 21.333333V832c0 12.8-8.533333 21.333333-21.333333 21.333333z m-21.333333-896H85.333333V213.33333300000004h853.333334v-256z m0 298.666667H85.333333V512h853.333334v-256z m0 298.666667H85.333333V810.666667h853.333334v-256zM298.666667 128h-42.666667v-85.333333h42.666667v85.333333z m-85.333334 0H170.666667v-85.333333h42.666666v85.333333z m661.333334-21.333333h-170.666667v-42.666667h170.666667v42.666667zM298.666667 426.666667h-42.666667v-85.333334h42.666667v85.333334z m-85.333334 0H170.666667v-85.333334h42.666666v85.333334z m661.333334-21.333334h-170.666667v-42.666666h170.666667v42.666666zM298.666667 725.333333h-42.666667v-85.333333h42.666667V725.333333z m-85.333334 0H170.666667v-85.333333h42.666666V725.333333z m661.333334-21.333333h-170.666667v-42.666667h170.666667V704z"  horiz-adv-x="1024" />

    
    <glyph glyph-name="caret" unicode="&#58989;" d="M766.592 510.528A4.864 4.864 0 0 1 763.2 512H260.864a4.8 4.8 0 0 1-3.456-1.344 4.608 4.608 0 0 1 0-6.656v-0.064l0.192-0.128 251.008-246.336a4.864 4.864 0 0 1 6.848 0l251.008 246.336v0.064l0.128 0.064a4.608 4.608 0 0 1 0 6.656z"  horiz-adv-x="1024" />

    
    <glyph glyph-name="up" unicode="&#58996;" d="M257.408 257.53599999999994a4.864 4.864 0 0 1 3.392-1.472h502.336a4.8 4.8 0 0 1 3.456 1.28 4.608 4.608 0 0 1 0 6.72l-0.192 0.192-251.008 246.272a4.864 4.864 0 0 1-6.848 0L257.536 264.32000000000005v-0.064l-0.128-0.064a4.608 4.608 0 0 1 0-6.656z m0 0"  horiz-adv-x="1024" />

    
    <glyph glyph-name="gague" unicode="&#59001;" d="M895.36 844.8a77.568 77.568 0 0 0 77.44-77.44v-203.52a77.568 77.568 0 0 0-77.44-77.44H614.4V767.36A77.568 77.568 0 0 0 691.84 844.8h203.52m0 51.2h-203.52A128.832 128.832 0 0 1 563.2 767.36V435.2h332.16A128.832 128.832 0 0 1 1024 563.8399999999999V767.36A128.832 128.832 0 0 1 895.36 896zM895.36 281.6a77.568 77.568 0 0 0 77.44-77.44v-203.52a77.568 77.568 0 0 0-77.44-77.44h-203.52a77.568 77.568 0 0 0-77.44 77.44V281.6h280.96m0 51.2H563.2v-332.16A128.832 128.832 0 0 1 691.84-128h203.52A128.832 128.832 0 0 1 1024 0.6399999999999864v203.52a128.832 128.832 0 0 1-128.64 128.64zM409.6 281.6v-280.96a77.568 77.568 0 0 0-77.44-77.44H128.64A77.568 77.568 0 0 0 51.2 0.6399999999999864v203.52A77.568 77.568 0 0 0 128.64 281.6H409.6m51.2 51.2H128.64A128.832 128.832 0 0 1 0 204.15999999999997v-203.52A128.832 128.832 0 0 1 128.64-128h203.52a128.832 128.832 0 0 1 128.64 128.64V332.79999999999995zM332.16 844.8A77.568 77.568 0 0 0 409.6 767.36V486.4H128.64A77.568 77.568 0 0 0 51.2 563.8399999999999V767.36A77.568 77.568 0 0 0 128.64 844.8h203.52m0 51.2H128.64A128.832 128.832 0 0 1 0 767.36v-203.52A128.832 128.832 0 0 1 128.64 435.2H460.8V767.36A128.832 128.832 0 0 1 332.16 896z"  horiz-adv-x="1024" />

    
    <glyph glyph-name="menu2" unicode="&#59002;" d="M857.6 896v-1024h-51.2V896zM537.6 896v-1024h-51.2V896zM217.6 896v-1024h-51.2V896z"  horiz-adv-x="1024" />

    
    <glyph glyph-name="menu1" unicode="&#59003;" d="M0 729.6h1024v-51.2H0zM0 409.6h1024v-51.2H0zM0 89.60000000000002h1024v-51.2H0z"  horiz-adv-x="1024" />

    
    <glyph glyph-name="tunnel" unicode="&#59004;" d="M895.852745 128.05263100000002a127.978644 127.978644 0 0 1-125.419071-102.382915H253.399954a127.018804 127.018804 0 0 1-18.684882 44.792526l206.749499 206.813488a127.850665 127.850665 0 0 1 177.186432 177.186432l206.749499 206.749498A127.914654 127.914654 0 1 1 770.433674 793.541578H253.399954a127.978644 127.978644 0 1 1 0-51.191458h517.03372a127.146782 127.146782 0 0 1 18.748872-44.984493l-206.68551-206.685509a127.850665 127.850665 0 0 1-177.250421-177.250422l-206.68551-206.685509A127.914654 127.914654 0 1 1 253.399954-25.52174100000002h517.03372A127.978644 127.978644 0 1 1 895.852745 128.05263100000002zM895.852745 841.149633A73.203784 73.203784 0 1 0 822.648961 767.945849 73.331763 73.331763 0 0 0 895.852745 841.149633zM127.980884 694.742065A73.203784 73.203784 0 1 0 201.184668 767.945849 73.331763 73.331763 0 0 0 127.980884 694.742065z m383.93593-237.528363A73.203784 73.203784 0 1 0 438.71303 384.009918 73.331763 73.331763 0 0 0 511.916814 457.213702z m-383.93593-530.343498a73.203784 73.203784 0 0 0 0 146.407568 71.796019 71.796019 0 0 0 45.112471-16.957171l11.134142-11.134141a71.796019 71.796019 0 0 0 16.957171-45.112472A73.331763 73.331763 0 0 0 127.980884-73.12979600000006z m767.871861 0A73.203784 73.203784 0 1 0 969.056529 0.07398799999998573 73.331763 73.331763 0 0 0 895.852745-73.12979600000006z"  horiz-adv-x="1024" />

    
    <glyph glyph-name="ecp" unicode="&#59006;" d="M801.344 510.08a212.288 212.288 0 0 1 2.816 30.592 292.16 292.16 0 0 1-584.32 0 221.76 221.76 0 0 1 2.752-30.592A291.136 291.136 0 0 1 292.16-64h439.68a291.136 291.136 0 0 1 69.504 574.08z m-69.504-522.88h-439.68a239.936 239.936 0 0 0-57.344 473.152l44.8 11.072-6.336 45.632a170.688 170.688 0 0 0-2.24 23.616 240.96 240.96 0 0 0 481.92 0 167.488 167.488 0 0 0-2.24-23.296l-6.656-45.888 45.056-11.136a239.936 239.936 0 0 0-57.28-473.152zM411.968 421.312a19.2 19.2 0 0 1-27.2 0L298.88 335.36a19.2 19.2 0 0 1 27.136-27.2l53.248 53.248v-235.264a19.2 19.2 0 0 1 38.4 0V361.408l53.12-53.248a19.2 19.2 0 0 1 27.2 27.2zM696.192 225.72799999999995l-53.184-53.248V407.744a19.2 19.2 0 0 1-38.4 0v-235.264l-53.248 53.248a19.2 19.2 0 1 1-27.136-27.2l86.016-85.952a19.136 19.136 0 0 1 13.568-5.632 19.136 19.136 0 0 1 13.568 5.632l85.952 85.952a19.2 19.2 0 1 1-27.136 27.2z"  horiz-adv-x="1024" />

    
    <glyph glyph-name="idc" unicode="&#59008;" d="M736.128 640V896H287.872v-256H0v-768h1024V640zM287.744-76.79999999999995H51.2V588.8h236.544z m397.184 0H339.072V844.8h345.856z m287.872 0h-236.544V588.8H972.8zM124.672 459.072h89.6a19.2 19.2 0 1 1 0 38.4h-89.6a19.2 19.2 0 1 1 0-38.4zM124.672 274.94399999999996h89.6a19.2 19.2 0 0 1 0 38.4h-89.6a19.2 19.2 0 1 1 0-38.4zM809.728 459.072h89.6a19.2 19.2 0 1 1 0 38.4h-89.6a19.2 19.2 0 0 1 0-38.4zM809.728 274.94399999999996h89.6a19.2 19.2 0 1 1 0 38.4h-89.6a19.2 19.2 0 0 1 0-38.4zM435.2 659.904h153.6a19.2 19.2 0 0 1 0 38.4H435.2a19.2 19.2 0 0 1 0-38.4zM435.2 475.776h153.6a19.2 19.2 0 1 1 0 38.4H435.2a19.2 19.2 0 0 1 0-38.4z"  horiz-adv-x="1024" />

    
    <glyph glyph-name="scheme" unicode="&#59012;" d="M607.872 596.544a19.2 19.2 0 1 1 0 38.4h-320a19.2 19.2 0 0 1 0-38.4zM639.872 364.79999999999995a19.2 19.2 0 1 1 0 38.4h-384a19.2 19.2 0 0 1 0-38.4h384zM287.872 171.45600000000002a19.2 19.2 0 0 1 0-38.4h320a19.2 19.2 0 1 1 0 38.4zM960 639.6800000000001a23.936 23.936 0 0 1-47.872 0v-560.448a157.056 157.056 0 0 0-155.328-158.4H111.808V847.232h669.312v-719.68l-0.064-0.192a23.936 23.936 0 1 1 47.872 0V896H64v-1024h692.8A205.44 205.44 0 0 1 960 79.23199999999997V639.616z"  horiz-adv-x="1024" />

    
    <glyph glyph-name="console" unicode="&#59019;" d="M1024 832H0v-705.152h350.144v-139.52h-68.48a25.6 25.6 0 0 1 0-51.328h460.672a25.6 25.6 0 0 1 0 51.264h-68.992v139.52H1024V832zM51.2 379.39200000000005V780.8h921.6v-401.408z m0-201.408V328.12800000000004h921.6v-150.144z m350.08-190.72v139.52h220.8v-139.52z"  horiz-adv-x="1024" />

    
    <glyph glyph-name="scs" unicode="&#59020;" d="M511.808 896L0 659.072v-550.144L511.808-128 1024 108.928V659.072L511.808 896z m0-417.472l-389.952 180.48L511.872 839.68l390.208-180.544-390.208-180.48z m460.992-345.92L537.6 333.952V434.048l435.2 201.344v-502.784z m-921.6 0V635.392L486.4 433.92v-99.84L51.2 132.60799999999995z m435.2-192.384l-364.544 168.704L486.4 277.76v-337.472z m51.2 0.128V277.568l364.48-168.64L537.6-59.648000000000025z"  horiz-adv-x="1024" />

    
    <glyph glyph-name="logout" unicode="&#59021;" d="M694.50075 73.05147399999998a24.435782 24.435782 0 0 1-24.371814-24.371814v-127.936032H48.743628V846.744628h621.385308v-127.936032a24.371814 24.371814 0 0 1 48.743628 0V895.488256H0v-1023.488256h718.872564v176.67966a24.435782 24.435782 0 0 1-24.371814 24.371814zM1016.003998 402.358821l-189.985007 189.985007a25.587206 25.587206 0 0 1-36.14193-36.205897L936.171914 409.843078H321.75912a25.587206 25.587206 0 1 1 0-51.174412h614.412794l-146.294853-146.294853a25.587206 25.587206 0 0 1 36.14193-36.205897l189.985007 189.985008a25.651174 25.651174 0 0 1 0 36.205897z"  horiz-adv-x="1024" />

    
    <glyph glyph-name="user" unicode="&#59022;" d="M512.384 384a256 256 0 1 1-0.768 0A512 512 0 0 1 0-128h1024a512 512 0 0 1-511.616 512zM307.2 640A204.8 204.8 0 1 0 512 435.2 205.056 205.056 0 0 0 307.2 640zM512 332.79999999999995a461.44 461.44 0 0 0 457.984-409.6H54.016A461.44 461.44 0 0 0 512 332.79999999999995z"  horiz-adv-x="1024" />

    
    <glyph glyph-name="cog" unicode="&#59023;" d="M912.192 478.08a403.2 403.2 0 0 1-117.952 201.408l46.4 101.568L695.232 864 629.824 773.888a417.856 417.856 0 0 1-235.712 0L328.704 864 183.296 781.056l46.464-101.568a402.752 402.752 0 0 1-118.016-201.472L0 467.008v-166.016l111.744-11.008a402.688 402.688 0 0 1 118.016-201.472l-46.464-101.568L328.704-96l65.408 90.048a418.88 418.88 0 0 1 235.712 0l65.408-90.048 145.408 82.944-46.4 101.568a403.2 403.2 0 0 1 117.952 201.472L1024 300.99199999999996V467.008z m60.608-130.688l-65.664-6.464-36.288-3.584-8.448-35.456a352.896 352.896 0 0 0-103.04-175.936l-27.008-25.152 15.36-33.536 26.88-59.008-64.896-37.056-38.4 52.928-21.248 29.248-34.688-10.24a367.744 367.744 0 0 0-206.784 0l-34.688 10.24-21.248-29.248-38.4-52.928-64.896 37.056 26.944 59.008 15.36 33.536-27.008 25.152a352.512 352.512 0 0 0-103.04 176l-8.512 35.392-36.288 3.584L51.2 347.39200000000005V420.608l65.6 6.464 36.288 3.584 8.448 35.456a352.512 352.512 0 0 0 103.104 175.936l27.008 25.152-15.36 33.536-26.944 59.008L314.24 796.8l38.4-52.992 21.248-29.248 34.688 10.24a366.592 366.592 0 0 0 206.72 0l34.752-10.24 21.248 29.248 38.4 52.992 64.96-37.056-26.944-59.008-15.36-33.536 26.944-25.152a352.896 352.896 0 0 0 103.04-176l8.512-35.392 36.288-3.584 65.664-6.464zM512 610.752A226.752 226.752 0 1 1 741.312 384 228.288 228.288 0 0 1 512 610.752z m0-402.304A175.552 175.552 0 1 0 690.112 384 177.024 177.024 0 0 0 512 208.44799999999998z"  horiz-adv-x="1024" />

    
    <glyph glyph-name="node" unicode="&#59024;" d="M554.048 800.256a258.112 258.112 0 0 1-230.528-133.696 166.272 166.272 0 0 1-13.568 0.64 152.064 152.064 0 0 1-157.184-146.048 118.272 118.272 0 0 1 0.704-13.184A237.44 237.44 0 0 1 0 292.48a247.488 247.488 0 0 1 256.768-236.416h212.672a25.472 25.472 0 0 1 0 51.008H256.768A196.608 196.608 0 0 0 51.008 292.48a188.16 188.16 0 0 0 139.456 174.592l23.488 7.36-6.592 23.68a85.44 85.44 0 0 0-3.584 22.976A100.8 100.8 0 0 0 309.12 616.192a126.336 126.336 0 0 0 24.32-2.368l20.608-4.096 8 19.2a204.16 204.16 0 0 0 192 120.32 196.672 196.672 0 0 0 205.696-185.472 25.472 25.472 0 0 1 51.008 0 247.488 247.488 0 0 1-256.768 236.48zM572.8-32.25599999999997h189.952V471.872H572.8z m38.4 465.728h113.152v-427.328H611.2zM667.968 353.664a18.368 18.368 0 0 1-19.2-17.472v-232.704a19.264 19.264 0 0 1 38.4 0V336.192a18.368 18.368 0 0 1-19.2 17.472zM929.024 86.01599999999996a18.368 18.368 0 0 1 19.2 17.472V336.192a19.264 19.264 0 0 1-38.4 0v-232.704a18.368 18.368 0 0 1 19.2-17.472zM834.048 471.872v-504.128H1024V471.872z m151.552-465.728h-113.152V433.472H985.6z"  horiz-adv-x="1024" />

    
    <glyph glyph-name="dashboard" unicode="&#59025;" d="M512 896a512 512 0 1 1 512-512 512 512 0 0 1-512 512z m0-972.8A460.8 460.8 0 1 0 972.8 384 461.312 461.312 0 0 0 512-76.79999999999995zM512 729.6a313.984 313.984 0 0 1-313.6-313.6 25.6 25.6 0 0 1 51.2 0 262.4 262.4 0 1 0 524.8 0 25.6 25.6 0 0 1 51.2 0A313.984 313.984 0 0 1 512 729.6zM345.408 473.216l172.48-236.8 76.736 2.368-2.368 76.736-246.848 157.696z"  horiz-adv-x="1024" />

    
    <glyph glyph-name="network" unicode="&#59027;" d="M417.728 116.60799999999995h-154.24a202.24 202.24 0 0 0-211.2 191.36 194.048 194.048 0 0 0 143.104 180.224l24.128 7.616-6.72 24.384a88.768 88.768 0 0 0-3.712 23.744 103.68 103.68 0 0 0 108.16 98.112 128.704 128.704 0 0 0 25.024-2.496l21.12-4.224 8.192 19.84A209.472 209.472 0 0 0 568.512 779.52a202.24 202.24 0 0 0 211.2-191.488 26.176 26.176 0 1 1 52.288 0A254.592 254.592 0 0 1 568.512 832a264.576 264.576 0 0 1-236.544-137.92 171.008 171.008 0 0 1-13.952 0.576 156.416 156.416 0 0 1-161.28-150.72 123.136 123.136 0 0 1 0.768-13.568A245.056 245.056 0 0 1 0 308.03200000000004 254.592 254.592 0 0 1 263.488 64h154.24a26.304 26.304 0 0 1 0 52.608zM768 448a256 256 0 1 1 256-256 256 256 0 0 1-256 256z m-19.2-112.96a452.224 452.224 0 0 0-43.904 3.84 141.44 141.44 0 0 0 43.904 63.168z m0-38.4V211.20000000000005h-69.44a413.568 413.568 0 0 0 13.248 90.88 484.8 484.8 0 0 1 56.192-5.376z m0-123.84v-85.504a484.672 484.672 0 0 1-56.192-5.44 413.568 413.568 0 0 0-13.248 90.944z m0-123.84v-67.008a141.44 141.44 0 0 0-43.904 63.168c14.272 1.92 28.928 3.2 43.904 3.84z m38.4 0c14.976-0.64 29.632-1.92 43.904-3.84a141.44 141.44 0 0 0-43.904-63.168z m0 38.336V172.79999999999995h69.44a413.568 413.568 0 0 0-13.248-90.88 484.672 484.672 0 0 1-56.192 5.376z m0 123.904V296.70399999999995a484.8 484.8 0 0 1 56.192 5.376 413.568 413.568 0 0 0 13.248-90.88z m0 123.84V402.048a141.44 141.44 0 0 0 43.904-63.168c-14.272-1.984-28.928-3.2-43.904-3.84z m58.176 59.712a216.384 216.384 0 0 0 62.464-37.44 332.416 332.416 0 0 0-38.144-11.392 252.928 252.928 0 0 1-24.32 48.832z m-179.072-48.832a332.416 332.416 0 0 0-38.144 11.392 216.384 216.384 0 0 0 62.464 37.44 252.928 252.928 0 0 1-24.32-48.832z m-11.456-36.544a460.224 460.224 0 0 1-13.888-98.176H552.32a215.168 215.168 0 0 0 47.36 116.928 346.24 346.24 0 0 1 55.168-18.752z m-13.888-136.576a460.48 460.48 0 0 1 13.888-98.176 345.6 345.6 0 0 1-55.232-18.752A215.168 215.168 0 0 0 552.32 172.79999999999995z m25.344-134.72a253.248 253.248 0 0 1 24.32-48.832 216.32 216.32 0 0 0-62.464 37.44 333.44 333.44 0 0 0 38.144 11.392z m203.392 0a333.12 333.12 0 0 0 38.144-11.392 216.32 216.32 0 0 0-62.464-37.44 253.248 253.248 0 0 1 24.32 48.832z m11.456 36.544a460.48 460.48 0 0 1 13.888 98.176h88.64a215.168 215.168 0 0 0-47.36-116.928 345.6 345.6 0 0 1-55.168 18.752z m13.888 136.576a460.224 460.224 0 0 1-13.888 98.176 346.24 346.24 0 0 1 55.232 18.752 215.168 215.168 0 0 0 47.296-116.928z"  horiz-adv-x="1024" />

    
    <glyph glyph-name="code" unicode="&#59028;" d="M938.624 774.08H85.312A85.44 85.44 0 0 1 0 688.768v-198.08h48.768V688.768a36.608 36.608 0 0 0 36.544 36.608h853.312a36.608 36.608 0 0 0 36.544-36.608v-198.08H1024V688.768a85.44 85.44 0 0 1-85.376 85.312zM975.168 79.23199999999997a36.544 36.544 0 0 0-36.48-36.48H85.248a36.608 36.608 0 0 0-36.544 36.48V277.312H0v-198.08a85.44 85.44 0 0 1 85.312-85.312h853.312A85.504 85.504 0 0 1 1024 79.23199999999997V277.312h-48.832zM217.6 354.048a164.864 164.864 0 0 1-50.112-5.12 45.248 45.248 0 0 1-23.808-20.096 66.56 66.56 0 0 1-9.536-35.776 53.568 53.568 0 0 1 22.72-47.872 51.84 51.84 0 0 1 19.968-7.168 373.824 373.824 0 0 1 48.448-1.92h123.328V355.84000000000003c1.728 45.568-12.16 73.28-41.728 84.48a118.208 118.208 0 0 1-20.48 4.16q-10.688 1.152-39.04 1.088H151.04v-25.856h96.384a70.592 70.592 0 0 0 47.04-11.648 53.248 53.248 0 0 0 13.888-42.112v-11.968z m90.688-92.16H222.4a64.768 64.768 0 0 0-33.28 6.528 29.056 29.056 0 0 0-13.696 26.112 32 32 0 0 0 10.432 24.704 36.8 36.8 0 0 0 25.536 8.96h96.896zM432.576 531.9680000000001v-295.936h92.544a249.088 249.088 0 0 1 46.528 3.264 91.2 91.2 0 0 1 29.696 12.288 99.136 99.136 0 0 1 45.696 92.352 128.832 128.832 0 0 1-9.088 48.896 83.392 83.392 0 0 1-40.96 42.56 127.936 127.936 0 0 1-55.552 10.24H472.832v86.4zM532.288 419.84a68.096 68.096 0 0 0 73.024-77.76 91.2 91.2 0 0 0-18.176-56.96 67.072 67.072 0 0 0-54.848-23.104h-59.52V419.776zM824.96 419.776h64.832v25.856h-75.84a202.368 202.368 0 0 1-49.216-4.864 72.896 72.896 0 0 1-29.824-15.296 103.488 103.488 0 0 1-31.808-83.904 110.08 110.08 0 0 1 27.2-77.376 75.2 75.2 0 0 1 31.488-21.632 165.504 165.504 0 0 1 52.16-6.528h75.84v25.92h-57.088a155.008 155.008 0 0 0-34.176 2.944 70.784 70.784 0 0 0-25.216 11.392 74.688 74.688 0 0 0-28.416 64.32 85.632 85.632 0 0 0 17.28 57.728 79.872 79.872 0 0 0 62.848 21.44z"  horiz-adv-x="1024" />

    
    <glyph glyph-name="spm" unicode="&#59029;" d="M736 362.88h-448c-17.6 0-32-19.2-32-42.752v-106.624c0-23.488 14.4-42.688 32-42.688h448c17.6 0 32 19.2 32 42.688V320.12800000000004c0 23.488-14.4 42.688-32 42.688z m-6.4-149.376a16.768 16.768 0 0 0-0.512-4.288H294.912a16.768 16.768 0 0 0-0.512 4.288V320.12800000000004a16.768 16.768 0 0 0 0.512 4.288h434.176a16.768 16.768 0 0 0 0.512-4.288zM736 126.46400000000006h-448c-17.6 0-32-19.2-32-42.688v-106.688c0-23.424 14.4-42.624 32-42.624h448c17.6 0 32 19.2 32 42.624V83.84000000000003c0 23.488-14.4 42.688-32 42.688z m-6.4-149.376a16.768 16.768 0 0 0-0.512-4.224H294.912a16.768 16.768 0 0 0-0.512 4.224V83.84000000000003a16.768 16.768 0 0 0 0.512 4.288h434.176a16.768 16.768 0 0 0 0.512-4.288zM871.552 545.664c-0.768 142.08-83.264 284.672-266.56 284.672a234.304 234.304 0 0 1-231.488-151.616 145.536 145.536 0 0 1-213.952-129.472v-1.536a217.472 217.472 0 0 1 56.256-427.072v48.768a168.64 168.64 0 0 0-26.24 334.912l24.32 3.904-4.16 24.32a99.392 99.392 0 0 0-1.408 16.704A97.472 97.472 0 0 0 305.216 647.04a96.064 96.064 0 0 0 62.528-23.104l24.96-21.376 13.248 30.08c34.56 78.528 75.776 148.992 199.04 148.992 160.768 0 217.792-128.192 217.792-238.016 0-5.12-0.192-10.112-0.576-15.104l-1.344-21.184 20.8-4.288a168.64 168.64 0 0 0-33.536-333.632v-48.768a217.472 217.472 0 0 1 63.424 424.96zM376.448 286.01599999999996h146.048v-38.4H376.448zM609.152 286.01599999999996h38.4v-38.4h-38.4zM376.448 49.66399999999999h146.048v-38.4H376.448zM609.152 49.66399999999999h38.4v-38.4h-38.4z"  horiz-adv-x="1024" />

    
    <glyph glyph-name="close" unicode="&#59030;" d="M512 896a512 512 0 1 1 512-512 512 512 0 0 1-512 512z m0-972.8A460.8 460.8 0 1 0 972.8 384 461.312 461.312 0 0 0 512-76.79999999999995zM715.648 587.648a25.6 25.6 0 0 1-36.224 0L512 420.16 344.576 587.648a25.6 25.6 0 0 1-36.224-36.224L475.776 384l-167.424-167.488a25.6 25.6 0 0 1 36.224-36.16L512 347.77599999999995l167.424-167.424a25.6 25.6 0 0 1 36.224 36.16L548.224 384l167.424 167.424a25.6 25.6 0 0 1 0 36.224z"  horiz-adv-x="1024" />

    
    <glyph glyph-name="edit" unicode="&#59031;" d="M827.2 896a62.72 62.72 0 0 1-44.48-18.432L128.832 222.72000000000003 0-128l351.68 127.552L1005.568 654.336a63.104 63.104 0 0 1 0 89.152L871.68 877.568A62.72 62.72 0 0 1 827.2 896z m32.384-315.392L709.12 731.392 818.944 841.344a11.648 11.648 0 0 0 16.512 0l133.888-134.016a11.904 11.904 0 0 0 0-16.768L859.52 580.608z m-517.568-518.272l-150.528 150.72 481.984 482.688 150.528-150.784-481.92-482.624z m-256-104.704l77.824 211.84 134.592-134.784-212.48-77.056z"  horiz-adv-x="1024" />

    
    <glyph glyph-name="back" unicode="&#59032;" d="M512 896a512 512 0 1 1 512-512 512 512 0 0 1-512 512z m0-972.8A460.8 460.8 0 1 0 972.8 384 461.312 461.312 0 0 0 512-76.79999999999995zM806.4 409.6H279.36L428.8 559.04a25.6 25.6 0 0 1-36.224 36.16L199.424 402.112a24.384 24.384 0 0 1-3.392-5.12 25.152 25.152 0 0 1-2.048-3.2 25.728 25.728 0 0 1 0-19.648 24.896 24.896 0 0 1 1.92-2.944 24.512 24.512 0 0 1 3.52-5.312l193.152-193.152a25.6 25.6 0 0 1 36.224 36.224L279.36 358.4H806.4a25.6 25.6 0 1 1 0 51.2z"  horiz-adv-x="1024" />

    
    <glyph glyph-name="arrow_down" unicode="&#59033;" d="M530.112 135.03999999999996l461.568 461.632a25.6 25.6 0 1 1-36.16 36.224L512 189.44000000000005 68.48 632.96a25.6 25.6 0 1 1-36.16-36.224l461.568-461.568a25.664 25.664 0 0 1 36.224 0z"  horiz-adv-x="1024" />

    
    <glyph glyph-name="arrow_right" unicode="&#59034;" d="M760.96 402.112L299.264 863.68a25.6 25.6 0 1 1-36.224-36.16L706.56 384l-443.52-443.52a25.6 25.6 0 0 1 36.224-36.16l461.568 461.568a25.664 25.664 0 0 1 0 36.224z"  horiz-adv-x="1024" />

    
    <glyph glyph-name="sd_wan" unicode="&#59035;" d="M397.84704 458.752A214.72 214.72 0 0 1 300.82304 475.84H222.42304a91.2 91.2 0 0 0-52.928 10.496c-4.48 2.752-18.048 11.136-18.048 50.304 0 45.888 14.976 51.328 19.456 52.928a241.92 241.92 0 0 0 60.288 5.76h237.76V768H207.70304a494.848 494.848 0 0 1-67.84-3.456 140.544 140.544 0 0 1-107.52-82.56A344.64 344.64 0 0 1 0.02304 532.288a341.568 341.568 0 0 1 13.888-98.56 230.016 230.016 0 0 1 39.68-78.4 162.816 162.816 0 0 1 132.8-51.2h91.008a67.712 67.712 0 0 0 43.84-10.368 70.912 70.912 0 0 0 21.888-59.136 64.448 64.448 0 0 0-18.048-50.944c-3.84-3.264-17.28-10.944-60.16-10.944H22.74304V0h264.128a411.456 411.456 0 0 1 88.512 7.04 150.784 150.784 0 0 1 98.56 101.12 347.52 347.52 0 0 1 22.08 127.616 417.92 417.92 0 0 1-16.448 119.168 162.368 162.368 0 0 1-81.728 103.808z m28.352-332.032a102.016 102.016 0 0 0-62.464-69.824 373.12 373.12 0 0 0-76.8-5.696H73.87904v70.336H264.98304a141.44 141.44 0 0 1 94.208 23.936 113.664 113.664 0 0 1 35.2 89.152 119.424 119.424 0 0 1-40.384 98.56 117.504 117.504 0 0 1-76.544 22.144H186.39104a115.456 115.456 0 0 0-92.992 32.192 179.52 179.52 0 0 0-30.464 60.992A290.56 290.56 0 0 0 51.22304 532.352a293.696 293.696 0 0 0 27.264 127.36 89.152 89.152 0 0 0 68.8 54.208 457.472 457.472 0 0 0 60.416 2.88h210.048v-70.336H230.03904a258.432 258.432 0 0 1-76.48-8.704c-35.392-12.8-53.312-46.72-53.312-101.12a102.528 102.528 0 0 1 40.96-92.992 141.12 141.12 0 0 1 81.216-19.008H300.82304a165.184 165.184 0 0 0 74.048-11.712 111.488 111.488 0 0 0 55.552-72.576 367.232 367.232 0 0 0 14.336-104.576 297.216 297.216 0 0 0-18.624-109.056zM1003.67104 573.8879999999999a242.752 242.752 0 0 1-115.008 169.28 270.272 270.272 0 0 1-128 24.832H534.61504v-768h226.048a419.072 419.072 0 0 1 105.728 9.792 164.992 164.992 0 0 1 68.864 39.68 273.28 273.28 0 0 1 69.12 142.784A881.664 881.664 0 0 1 1024.02304 382.336a865.664 865.664 0 0 1-20.352 191.552z m-49.408-370.944a224.896 224.896 0 0 0-53.952-116.032 114.88 114.88 0 0 0-47.68-27.776 380.864 380.864 0 0 0-91.968-7.936H585.81504V716.8h174.848a226.304 226.304 0 0 0 103.68-18.688 194.112 194.112 0 0 0 89.408-135.616 815.04 815.04 0 0 0 19.072-180.096 831.36 831.36 0 0 0-18.56-179.456zM855.06304 581.44a110.72 110.72 0 0 1-94.4 39.424h-110.592v-473.792h110.592a107.776 107.776 0 0 1 101.632 48.256 267.136 267.136 0 0 1 26.048 79.488 570.88 570.88 0 0 1 9.92 108.672 551.936 551.936 0 0 1-11.712 117.376 217.088 217.088 0 0 1-31.552 80.64z m-16.96-296.896a215.488 215.488 0 0 0-20.096-63.552 61.888 61.888 0 0 0-57.344-22.656h-59.328V569.6h59.328a63.872 63.872 0 0 0 53.12-18.688 167.296 167.296 0 0 0 22.72-61.12 501.76 501.76 0 0 0 10.496-106.368 520.768 520.768 0 0 0-8.96-98.944z"  horiz-adv-x="1024" />

    
    <glyph glyph-name="calendar" unicode="&#59036;" d="M246.194386 268.05739200000005a89.432314 89.432314 0 1 1-89.432315 89.432315 89.560075 89.560075 0 0 1 89.432315-89.432315z m0 140.536494a51.10418 51.10418 0 1 0-51.10418-51.104179 51.16806 51.16806 0 0 0 51.10418 51.104179zM511.041797 268.05739200000005a89.432314 89.432314 0 1 1-89.432315 89.432315A89.496195 89.496195 0 0 1 511.041797 268.05739200000005z m0 140.536494a51.10418 51.10418 0 1 0-51.10418-51.104179 51.10418 51.10418 0 0 0 51.10418 51.104179zM775.889208 268.05739200000005a89.432314 89.432314 0 1 1-89.432315 89.432315 89.560075 89.560075 0 0 1 89.432315-89.432315z m0 140.536494a51.10418 51.10418 0 1 0-51.10418-51.104179 51.16806 51.16806 0 0 0 51.10418 51.104179zM246.194386-4.775046999999972a89.432314 89.432314 0 1 1-89.432315 89.432315 89.560075 89.560075 0 0 1 89.432315-89.432315z m0 140.536494a51.10418 51.10418 0 1 0-51.10418-51.104179 51.16806 51.16806 0 0 0 51.10418 51.104179zM511.041797-4.775046999999972a89.432314 89.432314 0 1 1-89.432315 89.432315 89.496195 89.496195 0 0 1 89.432315-89.432315z m0 140.536494a51.10418 51.10418 0 1 0-51.10418-51.104179 51.16806 51.16806 0 0 0 51.10418 51.104179zM775.889208-4.775046999999972a89.432314 89.432314 0 1 1-89.432315 89.432315 89.560075 89.560075 0 0 1 89.432315-89.432315z m0 140.536494a51.10418 51.10418 0 1 0-51.10418-51.104179 51.23194 51.23194 0 0 0 51.10418 51.104179zM876.0534 806.503805h-130.8267c-8.176669 51.742982-40.691703 89.432314-80.872364 89.432315s-72.759576-37.689333-80.936245-89.432315H411.899688c-8.176669 51.742982-40.691703 89.432314-80.872364 89.432315s-72.759576-37.689333-80.936245-89.432315h-104.124766A146.157954 146.157954 0 0 1 0 660.473612v-642.443419A146.221834 146.221834 0 0 1 146.030193-128h730.023207A146.285714 146.285714 0 0 1 1022.083593 18.030193000000054V660.473612a146.221834 146.221834 0 0 1-146.030193 146.030193zM664.354336 857.607985c23.827324 0 44.716157-35.772926 44.716157-76.656269s-20.888833-76.656269-44.716157-76.65627-44.716157 35.772926-44.716158 76.65627 20.888833 76.656269 44.716158 76.656269z m-333.327012 0c23.827324 0 44.716157-35.772926 44.716157-76.656269s-20.888833-76.656269-44.716157-76.65627-44.716157 35.772926-44.716157 76.65627 20.888833 76.656269 44.716157 76.656269z m642.315658-839.577792a97.417342 97.417342 0 0 0-97.289582-97.289582H146.030193a97.417342 97.417342 0 0 0-97.353462 97.289582V571.4884589999999h924.666251zM48.676731 622.592639v37.880973a97.481223 97.481223 0 0 0 97.353462 97.353462h103.549844c7.537867-53.020586 40.563943-91.859763 81.447287-91.859763 40.180661 0 72.695696 37.689333 80.872364 89.432315h171.518403c8.176669-51.742982 40.755583-89.432314 80.936245-89.432315 40.883344 0 73.84554 38.839177 81.383406 91.859763h130.315658a97.417342 97.417342 0 0 0 97.289582-97.353462v-37.880973z"  horiz-adv-x="1024" />

    
    <glyph glyph-name="question" unicode="&#59037;" d="M512 844.8A460.8 460.8 0 1 0 51.2 384 461.312 461.312 0 0 0 512 844.8M512 896a512 512 0 1 1 512-512 512 512 0 0 1-512 512zM494.72 219.96799999999996a45.504 45.504 0 0 1-32.96-13.568 44.8 44.8 0 0 1-0.384-64.192 46.656 46.656 0 0 1 34.88-13.824 46.528 46.528 0 0 1 45.12 45.44 44.224 44.224 0 0 1-13.696 32.576 45.504 45.504 0 0 1-32.96 13.568zM598.4 609.088a146.56 146.56 0 0 1-96.512 30.528 192 192 0 0 1-114.816-38.912v-80l11.008 11.52a128.384 128.384 0 0 0 95.36 43.008 76.8 76.8 0 0 0 50.048-15.872 51.2 51.2 0 0 0 18.944-42.368 78.4 78.4 0 0 0-8.32-32.896 235.328 235.328 0 0 0-46.976-54.08 226.688 226.688 0 0 1-49.28-60.288A109.184 109.184 0 0 1 448 325.376a159.744 159.744 0 0 1 8.128-51.392l1.472-4.352h72.896l-3.968 8.96a110.4 110.4 0 0 0-10.432 44.928 62.336 62.336 0 0 0 10.24 34.368 295.68 295.68 0 0 0 43.136 47.296 233.92 233.92 0 0 1 55.232 68.224A134.72 134.72 0 0 1 635.52 524.8a104.448 104.448 0 0 1-37.056 84.288z"  horiz-adv-x="1024" />

    
    <glyph glyph-name="jinggao-" unicode="&#59038;" d="M512 896a512 512 0 1 1 512-512 512 512 0 0 1-512 512z m54.528-791.488H457.472V191.36h109.056z m0 172.608H457.472V663.488h109.056z"  horiz-adv-x="1024" />

    
    <glyph glyph-name="search" unicode="&#59039;" d="M1018.217023-84.21410100000003l-343.564284 343.50033a384.495249 384.495249 0 1 1-36.134367-36.134367l343.500329-343.564284a25.581853 25.581853 0 1 1 36.198322 36.198321zM53.589306 511.715162A332.564087 332.564087 0 1 0 386.153393 179.151075 332.947815 332.947815 0 0 0 53.589306 511.715162z"  horiz-adv-x="1026" />

    
    <glyph glyph-name="clear" unicode="&#59040;" d="M-10.512313-102.67048499999999m17.920914 17.920914l973.34097 973.34097q17.920914 17.920914 35.841828 0l0.045255-0.045255q17.920914-17.920914 0-35.841828l-973.34097-973.34097q-17.920914-17.920914-35.841828 0l-0.045255 0.045255q-17.920914 17.920914 0 35.841828ZM-10.512313 870.670485m17.920914 17.920914l0.045255 0.045255q17.920914 17.920914 35.841828 0l973.34097-973.34097q17.920914-17.920914 0-35.841828l-0.045255-0.045255q-17.920914-17.920914-35.841828 0l-973.34097 973.34097q-17.920914 17.920914 0 35.841828Z"  horiz-adv-x="1024" />

    
    <glyph glyph-name="port-group" unicode="&#59041;" d="M448.49856 896v-267.392H317.93856a160 160 0 1 1 0-51.2H448.49856v-386.816H317.93856a160 160 0 1 1 0-51.2H448.49856V-128h576V896zM160.49856 494.208a108.8 108.8 0 1 0 108.8 108.8 108.928 108.928 0 0 0-108.8-108.8z m0-438.016a108.8 108.8 0 1 0 108.8 108.8 108.928 108.928 0 0 0-108.8-108.8zM973.29856-76.79999999999995H499.69856v216.192h92.8v-118.4h288v288h-288v-118.4H499.69856V577.408h92.8v-118.4h288v288h-288v-118.4H499.69856V844.8h473.6z m-329.6 148.992v185.6h185.6v-185.6z m0 438.016v185.6h185.6v-185.6z"  horiz-adv-x="1024" />

    
    <glyph glyph-name="eye-open" unicode="&#59042;" d="M512 768C229.248 768 0 384 0 384s229.248-384 512-384 512 384 512 384-229.248 384-512 384z m0-704c-198.272 0-376.192 233.024-435.84 320.384C152.32 497.024 329.728 704 512 704c198.016 0 375.68-232.384 435.584-320-59.904-87.616-237.568-320-435.584-320zM592 399.872a63.552 63.552 0 0 0-46.72 107.136 130.304 130.304 0 1 1 89.792-89.856 63.36 63.36 0 0 0-43.072-17.28z"  horiz-adv-x="1024" />

    
    <glyph glyph-name="chart" unicode="&#59043;" d="M998.4-12.799999999999955H51.2V806.4a25.6 25.6 0 0 1-51.2 0v-844.8a25.664 25.664 0 0 1 25.6-25.6h972.8a25.6 25.6 0 1 1 0 51.2zM899.456 322.55999999999995a31.424 31.424 0 0 1-24.96-12.8h-98.304a17.792 17.792 0 0 1-7.552-3.072l-0.96-0.448a16.832 16.832 0 0 1-6.656-6.016c-1.152-1.28-3.008-1.728-3.776-3.392l-30.4-64.256-96.832 361.408a18.368 18.368 0 0 1-8.64 13.632l-0.64 0.064a18.944 18.944 0 0 1-14.848 2.304 18.24 18.24 0 0 1-12.032-11.584L399.36 261.24800000000005l-46.336 100.416c-1.152 2.432-3.648 3.392-5.568 5.12-0.512 0.448-0.448 1.216-1.024 1.6-0.256 0.192-0.64 0-0.96 0.192a17.28 17.28 0 0 1-11.968 2.688 17.728 17.728 0 0 1-1.984-0.064c-1.344-0.32-2.688 0.448-3.968-0.192-2.56-1.152-3.52-3.648-5.184-5.632-0.768-0.768-2.048-0.768-2.688-1.664L255.104 271.744h-143.36a19.2 19.2 0 1 1 0-38.4h153.6c0.576 0 0.896 0.576 1.472 0.64a17.6 17.6 0 0 1 6.144 2.56 17.6 17.6 0 0 1 6.656 4.16c0.32 0.384 0.896 0.384 1.216 0.768l51.456 73.344 46.272-100.416 0.448-0.896 1.152-2.496c0.512-1.152 1.792-1.344 2.56-2.368 1.472-2.112 2.304-4.8 4.736-6.208 0.704-0.448 1.536 0 2.304-0.32a40.448 40.448 0 0 1 13.568-0.576c0.768 0.256 1.536-0.256 2.304 0.128 2.432 1.152 3.392 3.648 5.12 5.568 0.832 0.96 2.24 1.088 2.944 2.24l1.408 2.56 0.448 0.64 189.12 327.616 98.752-368.64a19.264 19.264 0 0 1 23.552-13.568 18.368 18.368 0 0 1 11.904 11.072c0.192 0.32 0.64 0.32 0.768 0.64l48 101.632h86.912a31.36 31.36 0 0 1 24.96-12.8 32 32 0 0 1 0 64z"  horiz-adv-x="1024" />

    
    <glyph glyph-name="user_circle" unicode="&#59044;" d="M511.99744 896a511.741441 511.741441 0 0 1-118.01541-1009.722951c2.367988-0.575997 4.671977-1.279994 7.039965-1.791991 14.719926-3.263984 29.695852-5.759971 44.863776-7.679962 3.583982-0.511997 7.039965-1.279994 10.623946-1.663992a491.709541 491.709541 0 0 1 110.975446 0c3.519982 0.383998 6.911965 1.151994 10.367948 1.599992 15.295924 1.91999 30.399848 4.479978 45.247773 7.743962l6.591968 1.727991A511.741441 511.741441 0 0 1 511.99744 896z m0-51.199744a460.861696 460.861696 0 0 0 362.686187-745.148274 391.93404 391.93404 0 0 1-284.798576 237.246814 191.99904 191.99904 0 1 1-155.967221 0 390.590047 390.590047 0 0 1-284.798576-236.990816A460.797696 460.797696 0 0 0 511.99744 844.800256z m0-473.597632A140.799296 140.799296 0 1 0 652.796736 512.0019199999999 140.927295 140.927295 0 0 0 511.99744 371.202624zM617.596912-63.995199999999954l-4.991975-1.343993-0.639997-0.191999c-13.311933-2.943985-26.879866-5.183974-40.767796-6.975965l-9.215954-1.471993A460.221699 460.221699 0 0 0 511.99744-76.79513599999996a446.717766 446.717766 0 0 0-52.863736 3.327983l-6.655966 1.023995a440.445798 440.445798 0 0 0-41.98379 7.359963L405.757971-63.995199999999954a459.709701 459.709701 0 0 0-217.342913 121.343393 339.518302 339.518302 0 0 0 647.228764 0.191999A460.157699 460.157699 0 0 0 617.596912-63.995199999999954z"  horiz-adv-x="1024" />

    
    <glyph glyph-name="agent" unicode="&#59045;" d="M921.6 128V384a25.6 25.6 0 0 1-25.6 25.6H537.6V640H640V896H384v-256h102.4v-230.4H128a25.6 25.6 0 0 1-25.6-25.6v-256H0v-256h256v256H153.6V358.4h332.8V128H384v-256h256v256H537.6V358.4h332.8V128H768v-256h256v256zM435.2 691.2V844.8h153.6v-153.6z m-230.4-614.4v-153.6H51.2v153.6z m384 0v-153.6H435.2v153.6z m384-153.6h-153.6v153.6h153.6z"  horiz-adv-x="1024" />

    
    <glyph glyph-name="email_circle" unicode="&#59046;" d="M512 896a512 512 0 1 1 512-512 512.576 512.576 0 0 1-512 512z m0-972.8A460.8 460.8 0 1 0 972.8 384 461.312 461.312 0 0 0 512-76.79999999999995zM749.632 601.6H274.368a34.24 34.24 0 0 1-34.368-34.048v-367.104a34.24 34.24 0 0 1 34.368-34.048h475.264a34.24 34.24 0 0 1 34.368 34.048V567.552a34.24 34.24 0 0 1-34.368 34.048zM291.2 514.1759999999999l129.984-130.048-129.984-129.984z m220.672-148.288l-36.288 36.288-0.064 0.064L327.36 550.4h368.96z m-54.4-17.92l36.288-36.352 0.128-0.128a25.6 25.6 0 0 1 36.224 0l0.512 0.704 33.728 33.792 128.384-128.384H327.04z m143.104 34.24l132.224 132.224v-264.448z"  horiz-adv-x="1024" />

    
    <glyph glyph-name="phone_circle" unicode="&#59047;" d="M512 896a512 512 0 1 1 512-512 512.576 512.576 0 0 1-512 512z m0-972.8A460.8 460.8 0 1 0 972.8 384 461.312 461.312 0 0 0 512-76.79999999999995zM672.128 342.91200000000003a49.472 49.472 0 0 1-69.184 0l-33.792-33.728a143.936 143.936 0 0 0-86.4 46.464 144 144 0 0 0-46.272 86.144l33.536 33.472a49.024 49.024 0 0 1 0 69.248L362.88 651.392a49.28 49.28 0 0 1-34.688 14.08h-0.192a48.064 48.064 0 0 1-34.304-14.08l-24.576-24.576a32 32 0 0 1-6.208-8.064 136.96 136.96 0 0 1-22.4-37.312c-33.664-84.48 19.648-223.296 126.784-330.112 74.24-74.048 193.92-149.12 279.168-149.12a171.328 171.328 0 0 1 63.104 11.328 134.912 134.912 0 0 1 46.4 29.952l23.552 23.36a49.024 49.024 0 0 1-0.256 69.184z m47.616-163.2a84.16 84.16 0 0 0-28.992-18.56 120.768 120.768 0 0 0-44.352-7.68c-67.968 0-176.896 68.16-242.944 134.08C313.216 377.6 262.528 498.368 288.128 562.56a115.2 115.2 0 0 0 17.152 28.096l21.44 24.512L433.92 511.488l-48.128-48-0.64-9.728a179.584 179.584 0 0 1 61.568-134.4 182.528 182.528 0 0 1 134.272-61.568l9.728 0.64 46.528 47.04 105.984-102.4z"  horiz-adv-x="1024" />

    
    <glyph glyph-name="phone" unicode="&#59048;" d="M144.459255 843.270761l207.840304-207.328382-79.283909-79.091939-13.693911-13.693911-1.215815-19.389044a359.241216 359.241216 0 0 1 122.989244-268.759014 372.935127 372.935127 0 0 1 258.264615-123.373185c4.159366 0 7.550848 0.12798 10.238438 0.255961l19.517024 1.023843 13.885882 13.885883 79.795832 79.731841 207.968284-207.392373-43.513364-43.321393a170.725964 170.725964 0 0 0-58.103139-37.11434 240.603308 240.603308 0 0 0-88.562494-15.485639c-135.787292 0-353.610074 136.299214-485.749923 268.119112C114.255861 371.47071100000005 12.831328 612.905892 64.151502 741.206326a171.621828 171.621828 0 0 0 28.027726 46.712876l2.559609 3.071532 2.111678 3.455473 1.535766 3.007541 46.072974 45.881003M144.267284 895.87074a46.072974 46.072974 0 0 1-32.826994-13.24598L62.231795 833.672225a46.648886 46.648886 0 0 1-6.718976-8.574692l-2.559609-4.351337a222.68604 222.68604 0 0 1-36.410448-60.662749C-42.584221 611.754068 61.463912 351.761716 258.681836 155.11970399999996 396.260855 17.92462599999999 625.985822-127.97312399999998 780.586246-127.97312399999998h0.06399a291.155599 291.155599 0 0 1 107.311635 19.005102 221.918157 221.918157 0 0 1 75.508485 48.632583l46.712876 46.520906h0.127981a46.584896 46.584896 0 0 1-0.191971 65.973939l-214.175338 213.727406a47.992681 47.992681 0 0 1-66.2299 0l-82.867363-82.867362c-1.919707-0.12798-4.479317-0.191971-7.486858-0.191971a322.382837 322.382837 0 0 0-222.046138 108.399469 310.672622 310.672622 0 0 0-108.143508 229.405016l82.547411 82.35544a46.712876 46.712876 0 0 1 0 65.909949L177.54221 882.68875A47.032827 47.032827 0 0 1 144.267284 895.87074z"  horiz-adv-x="1024" />

    
    <glyph glyph-name="email" unicode="&#59049;" d="M959.36 793.6H64.64A64.512 64.512 0 0 1 0 729.472v-690.944a62.08 62.08 0 0 1 11.648-34.56 24.96 24.96 0 0 1 6.144-11.136 24.96 24.96 0 0 1 10.88-6.08 63.232 63.232 0 0 1 35.968-12.352h894.72A64.512 64.512 0 0 1 1024 38.52800000000002V729.472A64.512 64.512 0 0 1 959.36 793.6zM51.2 706.1759999999999l321.856-321.92L51.2 62.464000000000055z m460.544-388.16L87.296 742.4h848.896z m-102.528 30.08L493.568 263.67999999999995l0.064-0.128h0.128l0.128-0.192a25.6 25.6 0 0 1 36.16 0c0.384 0.384 0.512 0.832 0.832 1.216L610.56 344.384l318.72-318.784H86.784z m237.568 32.512L972.8 706.56v-651.968z"  horiz-adv-x="1024" />

    
    <glyph glyph-name="task" unicode="&#59050;" d="M246.976 695.744a83.2 83.2 0 1 1 83.2-83.2 83.264 83.264 0 0 1-83.2 83.2z m0-128a44.8 44.8 0 1 0 44.8 44.8 44.8 44.8 0 0 0-44.8-44.8zM246.976 448.576a83.2 83.2 0 1 1 83.2-83.2 83.264 83.264 0 0 1-83.2 83.2z m0-128a44.8 44.8 0 1 0 44.8 44.8 44.8 44.8 0 0 0-44.8-44.8zM246.976 201.34400000000005a83.2 83.2 0 1 1 83.2-83.2 83.264 83.264 0 0 1-83.2 83.2z m0-128a44.8 44.8 0 1 0 44.8 44.8 44.864 44.864 0 0 0-44.8-44.8zM888.96 896H135.04a135.232 135.232 0 0 1-135.04-135.04v-753.92A135.232 135.232 0 0 1 135.04-128H888.96A135.232 135.232 0 0 1 1024 7.039999999999964V760.96A135.232 135.232 0 0 1 888.96 896z m83.84-888.96a83.968 83.968 0 0 0-83.84-83.84H135.04a83.968 83.968 0 0 0-83.84 83.84V760.96A83.968 83.968 0 0 0 135.04 844.8H888.96a83.968 83.968 0 0 0 83.84-83.84zM817.6 631.744h-345.6a19.2 19.2 0 0 1 0-38.4h345.6a19.2 19.2 0 1 1 0 38.4zM817.6 384.576h-345.6a19.2 19.2 0 1 1 0-38.4h345.6a19.2 19.2 0 1 1 0 38.4zM817.6 137.40800000000002h-345.6a19.2 19.2 0 0 1 0-38.4h345.6a19.2 19.2 0 1 1 0 38.4z"  horiz-adv-x="1024" />

    
    <glyph glyph-name="message" unicode="&#59052;" d="M512 780.8c254.08 0 460.8-166.976 460.8-372.16s-206.72-372.224-460.8-372.224a561.344 561.344 0 0 0-134.208 16.192l-12.928 3.2-12.864-3.52-165.312-45.504 15.872 92.352 5.056 29.44-23.104 18.88A337.536 337.536 0 0 0 51.2 408.576C51.2 613.8879999999999 257.92 780.8 512 780.8M512 832C229.696 832 0 642.048 0 408.64a387.392 387.392 0 0 1 152.064-300.8L122.624-64l242.944 66.944A612.608 612.608 0 0 1 512-14.783999999999992c282.304 0 512 189.952 512 423.424S794.304 832 512 832zM256 547.2m25.6 0l460.8 0q25.6 0 25.6-25.6l0 0q0-25.6-25.6-25.6l-460.8 0q-25.6 0-25.6 25.6l0 0q0 25.6 25.6 25.6ZM256 272m25.6 0l460.8 0q25.6 0 25.6-25.6l0 0q0-25.6-25.6-25.6l-460.8 0q-25.6 0-25.6 25.6l0 0q0 25.6 25.6 25.6Z"  horiz-adv-x="1024" />

    
    <glyph glyph-name="password" unicode="&#59053;" d="M512 321.58113000000003a43.985599 43.985599 0 0 1-48.562135-43.032154c0-32.226443 32.417132-86.000745 32.417132-123.630044 0-32.290006-21.611421-43.032154-21.611422-64.516449a38.201366 38.201366 0 0 1 75.51285 0c0 21.484295-21.611421 32.226443-21.611422 64.516449 0 37.629299 32.417132 91.4036 32.417132 123.630044A43.985599 43.985599 0 0 1 512 321.58113000000003zM829.815022 507.630043h-63.563005V641.747983a254.252017 254.252017 0 0 1-508.504034 0v-134.11794H194.184978a63.753693 63.753693 0 0 1-63.563004-63.563004v-508.504035a63.753693 63.753693 0 0 1 63.563004-63.563004h635.630044a63.753693 63.753693 0 0 1 63.563004 63.563004v508.504035a63.753693 63.753693 0 0 1-63.563004 63.563004zM308.598386 641.747983a203.401614 203.401614 0 0 0 406.803228 0v-134.11794H308.598386z m533.929237-706.184979a12.90329 12.90329 0 0 0-12.712601-12.712601H194.184978a12.90329 12.90329 0 0 0-12.712601 12.712601v508.504035a12.90329 12.90329 0 0 0 12.712601 12.712601h63.563005v-0.444941h508.504034v0.508504h63.563005a12.90329 12.90329 0 0 0 12.712601-12.712601z"  horiz-adv-x="1024" />

    
    <glyph glyph-name="minus" unicode="&#59055;" d="M0 409.6m25.6 0l972.8 0q25.6 0 25.6-25.6l0 0q0-25.6-25.6-25.6l-972.8 0q-25.6 0-25.6 25.6l0 0q0 25.6 25.6 25.6Z"  horiz-adv-x="1024" />

    
    <glyph glyph-name="plus" unicode="&#59056;" d="M998.4 409.6H537.6V870.4a25.6 25.6 0 0 1-51.2 0v-460.8H25.6a25.6 25.6 0 1 1 0-51.2h460.8v-460.8a25.6 25.6 0 0 1 51.2 0V358.4h460.8a25.6 25.6 0 1 1 0 51.2z"  horiz-adv-x="1024" />

    
    <glyph glyph-name="tick" unicode="&#59057;" d="M512 896a512 512 0 1 1 512-512 512 512 0 0 1-512 512z m249.472-399.104L489.92 225.27999999999997a31.36 31.36 0 0 0-27.136-8.512 31.36 31.36 0 0 0-27.136 8.512L299.84 361.15200000000004a32 32 0 0 0 45.312 45.248L462.72 288.64l253.44 253.44a32 32 0 1 0 45.248-45.248z"  horiz-adv-x="1024" />

    
    <glyph glyph-name="delete" unicode="&#59058;" d="M998.4 704h-250.048a241.728 241.728 0 0 1-472.704 0H25.6a25.6 25.6 0 1 1 0-51.2H128V0a128.384 128.384 0 0 1 128-128h512a128.384 128.384 0 0 1 128 128V652.8h102.4a25.6 25.6 0 1 1 0 51.2zM512 843.5840000000001A191.168 191.168 0 0 0 695.808 704H328.192A191.168 191.168 0 0 0 512 843.5840000000001zM844.8 0a76.864 76.864 0 0 0-76.8-76.8H256A76.864 76.864 0 0 0 179.2 0V652.8h665.6zM337.984 472.64a25.6 25.6 0 0 1-25.6-25.6v-332.8a25.6 25.6 0 1 1 51.2 0v332.8a25.6 25.6 0 0 1-25.6 25.6zM512 472.64a25.6 25.6 0 0 1-25.6-25.6v-332.8a25.6 25.6 0 1 1 51.2 0v332.8a25.6 25.6 0 0 1-25.6 25.6zM686.016 472.64a25.6 25.6 0 0 1-25.6-25.6v-332.8a25.6 25.6 0 1 1 51.2 0v332.8a25.6 25.6 0 0 1-25.6 25.6z"  horiz-adv-x="1024" />

    
    <glyph glyph-name="tunnel_network" unicode="&#59059;" d="M512.32192 896A511.536014 511.536014 0 0 1 56.208174 615.68876l-2.815912-0.63998c0.191994-1.087966 0.63998-2.175932 0.831974-3.391894a509.42408 509.42408 0 0 1 57.982188-546.542921l0.255992-3.455892 2.111934 0.255992A511.920002 511.920002 0 1 1 512.32192 896z m460.785601-511.984a458.033686 458.033686 0 0 0-37.11884-180.858349c-5.43983 1.087966-10.87966 1.791944-16.447486 3.007906a606.573045 606.573045 0 0 0-132.091872 46.142558 67.51789 67.51789 0 0 1 3.263898 16.127496 70.07781 70.07781 0 0 1-20.287366 49.27846 723.817381 723.817381 0 0 1 99.964876 355.764883A458.417674 458.417674 0 0 0 973.107521 384.016z m-110.524546-298.614669c-11.647636-1.663948-23.167276-3.51989-35.006906-4.607856a689.002469 689.002469 0 0 0-218.361176 15.231524 69.75782 69.75782 0 0 1-6.07981 26.751164 727.721259 727.721259 0 0 1 86.525296 82.941408 68.989844 68.989844 0 0 1 30.655042-7.67976 70.07781 70.07781 0 0 1 49.27846 20.287366 644.907847 644.907847 0 0 1 141.691572-49.662448c2.55992-0.575982 4.991844-0.831974 7.423768-1.343958a462.257554 462.257554 0 0 0-56.126246-81.91744zM211.595318 442.190182a667.883129 667.883129 0 0 0 180.666354 228.600856 68.47786 68.47786 0 0 1 28.863098-12.47961 644.331865 644.331865 0 0 1 233.080717-368.692479 59.710134 59.710134 0 0 1 7.35977-57.662198 688.746477 688.746477 0 0 0-83.965376-80.509484 65.91794 65.91794 0 0 1-92.477111-14.07956 688.298491 688.298491 0 0 0-259.383894 199.481766 68.029874 68.029874 0 0 1-14.143558 105.340709z m620.972595 243.640386a685.866567 685.866567 0 0 0-96.060998-350.261055 67.453892 67.453892 0 0 1-16.191494 3.1999 69.245836 69.245836 0 0 1-44.7986-17.27946A606.061061 606.061061 0 0 0 459.84356 661.12734a70.205806 70.205806 0 0 1 44.286616 65.149964 67.581888 67.581888 0 0 1-3.327896 16.31949 663.211275 663.211275 0 0 0 190.458049 66.109934 462.06556 462.06556 0 0 0 140.15562-92.989094c0.447986-9.91969 1.151964-19.83938 1.151964-29.823068z m-212.47336 145.723446a699.626137 699.626137 0 0 1-137.275711-55.166276 69.75782 69.75782 0 0 1-38.782788 18.111434c-0.063998 14.911534 0.703978 29.887066 1.791944 44.926596A459.889628 459.889628 0 0 0 512.32192 844.8016a458.86566 458.86566 0 0 0 107.836631-13.247586z m-213.113341 0.63998a647.659761 647.659761 0 0 1-1.215962-41.470704 69.053842 69.053842 0 0 1-37.374832-89.789194 706.473923 706.473923 0 0 1-193.59395-246.648292L174.220486 454.4138a68.79785 68.79785 0 0 1-21.567326-4.351864 685.418581 685.418581 0 0 0-52.734352 138.23568A461.937564 461.937564 0 0 0 406.981212 832.193994zM76.559538 532.49136a721.705447 721.705447 0 0 1 44.15862-104.252742 67.1979 67.1979 0 0 1 9.087716-97.596951 703.530015 703.530015 0 0 1-22.527296-166.138808 457.457704 457.457704 0 0 0-30.71904 367.988501z m70.589794-428.402613c-0.31999 4.543858-0.95997 9.087716-1.27996 13.695572a667.115153 667.115153 0 0 0 19.583388 197.625824 65.981938 65.981938 0 0 1 8.767726-1.791944 67.965876 67.965876 0 0 1 18.495422 3.711884 727.081279 727.081279 0 0 1 277.623324-215.865254 65.725946 65.725946 0 0 1-1.535952-7.487766 66.87791 66.87791 0 0 1 2.751914-13.43958 683.562639 683.562639 0 0 0-222.71304-73.981688 463.9855 463.9855 0 0 0-101.692822 97.532952z m151.611262-127.996a720.873473 720.873473 0 0 1 189.562076 69.75782 68.605856 68.605856 0 0 1 110.524547 12.927596 722.537421 722.537421 0 0 1 164.15487-19.455392c18.87941 0 37.950814 1.215962 57.022218 2.687916a457.90569 457.90569 0 0 0-521.263711-65.91794z"  horiz-adv-x="1024" />

    
    <glyph glyph-name="arrow_left" unicode="&#59061;" d="M317.44 384l443.52 443.52a25.6 25.6 0 1 1-36.288 36.16L263.104 402.112a25.664 25.664 0 0 1 0-36.224l461.568-461.568a25.6 25.6 0 0 1 36.224 36.16z"  horiz-adv-x="1024" />

    
    <glyph glyph-name="sm-close" unicode="&#59062;" d="M303.827764 628.3761039999999m18.101933-18.101934l416.344473-416.344473q18.101934-18.101934 0-36.203867l0 0q-18.101934-18.101934-36.203867 0l-416.344473 416.344473q-18.101934 18.101934 0 36.203867l0 0q18.101934 18.101934 36.203867 0ZM756.376104 592.172236m-18.101934-18.101933l-416.344473-416.344473q-18.101934-18.101934-36.203867 0l0 0q-18.101934 18.101934 0 36.203867l416.344473 416.344473q18.101934 18.101934 36.203867 0l0 0q18.101934-18.101934 0-36.203867Z"  horiz-adv-x="1024" />

    
    <glyph glyph-name="up-down" unicode="&#59063;" d="M257.408 449.472A4.864 4.864 0 0 1 260.8 448h502.336a4.8 4.8 0 0 1 3.456 1.344 4.608 4.608 0 0 1 0 6.656v0.064l-0.192 0.128-251.008 246.336a4.864 4.864 0 0 1-6.848 0L257.536 456.192v-0.064l-0.128-0.064a4.608 4.608 0 0 1 0-6.656z m0 0M766.592 318.528A4.864 4.864 0 0 1 763.2 320H260.864a4.8 4.8 0 0 1-3.456-1.344 4.608 4.608 0 0 1 0-6.656v-0.064l0.192-0.128 251.008-246.336a4.864 4.864 0 0 1 6.848 0l251.008 246.336v0.064l0.128 0.064a4.608 4.608 0 0 1 0 6.656z m0 0"  horiz-adv-x="1024" />

    
    <glyph glyph-name="refresh" unicode="&#59054;" d="M680.448 773.568a409.92 409.92 0 0 1-511.104-248.96l-59.712 130.304a25.728 25.728 0 0 1-23.36 14.976 25.344 25.344 0 0 1-10.56-2.368 25.664 25.664 0 0 1-12.608-33.92l85.312-186.176a25.664 25.664 0 0 1 23.36-14.912 25.344 25.344 0 0 1 10.56 2.304l186.24 85.312a25.6 25.6 0 0 1-10.752 48.896 25.344 25.344 0 0 1-10.624-2.304l-129.728-59.52a357.76 357.76 0 1 0 102.784-395.2 25.6 25.6 0 0 1-33.344-38.848 409.6 409.6 0 1 1 393.536 700.416z"  horiz-adv-x="1024" />

    
    <glyph glyph-name="sort" unicode="&#59064;" d="M1015.745112 151.154358a25.644638 25.644638 0 0 1-36.132719 0l-191.471439-191.471439V870.035603a25.580687 25.580687 0 1 1-51.161374 0v-910.352684l-191.53539 191.471439a25.580687 25.580687 0 1 1-36.13272-36.196671l235.150461-235.150461a24.301652 24.301652 0 0 1 5.116138-3.389441 25.196976 25.196976 0 0 1 3.133634-2.046455 25.70859 25.70859 0 0 1 19.633177 0 24.941169 24.941169 0 0 1 3.325489 2.174358 24.557459 24.557459 0 0 1 4.924282 3.261538l235.150461 235.150461a25.644638 25.644638 0 0 1 0 36.196671zM25.580687 640.193134h524.404075a25.580687 25.580687 0 1 1 0 51.161373H25.580687a25.580687 25.580687 0 1 1 0-51.161373zM511.613732 384.002558a25.644638 25.644638 0 0 1-25.580687 25.580687H25.580687a25.580687 25.580687 0 1 1 0-51.161374h460.452358a25.644638 25.644638 0 0 1 25.580687 25.580687zM358.129612 127.74802999999997H25.580687a25.580687 25.580687 0 1 1 0-51.161373h332.548925a25.580687 25.580687 0 1 1 0 51.161373z"  horiz-adv-x="1024" />

    
    <glyph glyph-name="filter" unicode="&#59065;" d="M652.392255 472.456715a25.64797 25.64797 0 0 1 25.58401-25.58401h319.800125a25.58401 25.58401 0 0 1 0 51.16802h-319.800125a25.64797 25.64797 0 0 1-25.58401-25.58401zM997.77639-76.83198000000004h-319.800125a25.58401 25.58401 0 0 1 0-51.16802h319.800125a25.58401 25.58401 0 1 1 0 51.16802zM997.77639 210.604372h-319.800125a25.58401 25.58401 0 0 1 0-51.16802h319.800125a25.58401 25.58401 0 1 1 0 51.16802zM700.170394 856.984385c0.25584 0.51168 0.25584 1.08732 0.51168 1.53504a24.81649 24.81649 0 0 1 1.53504 4.669082 24.56065 24.56065 0 0 1 1.023361 5.116802c0 0.51168 0.3198 0.9594 0.3198 1.471081a24.048969 24.048969 0 0 1-0.6396 3.134041 25.26421 25.26421 0 0 1-1.023361 5.116802 24.75253 24.75253 0 0 1-2.046721 4.157402 24.75253 24.75253 0 0 1-2.878201 4.285321 24.94441 24.94441 0 0 1-3.517801 3.134042 24.176889 24.176889 0 0 1-2.686321 2.36652c-0.51168 0.25584-1.08732 0.25584-1.599001 0.511681a24.75253 24.75253 0 0 1-4.477202 1.53504 24.68857 24.68857 0 0 1-5.180762 1.023361C678.935665 895.0406 678.487945 895.3604 677.976265 895.3604H25.58401C25.07233 895.3604 24.62461 895.10456 24.048969 895.0406a24.68857 24.68857 0 0 1-5.116802-1.023361 24.75253 24.75253 0 0 1-4.477201-1.53504C13.751405 892.226359 13.239725 892.226359 12.792005 891.970518A24.176889 24.176889 0 0 1 10.105684 889.603998a24.94441 24.94441 0 0 1-3.517801-3.134042 24.75253 24.75253 0 0 1-2.878202-4.285321 24.75253 24.75253 0 0 1-2.04672-4.157402 25.26421 25.26421 0 0 1-1.023361-5.116802A24.048969 24.048969 0 0 1 0 869.77639c0-0.51168 0.25584-0.9594 0.3198-1.535041A24.56065 24.56065 0 0 1 1.2792 863.188507a24.81649 24.81649 0 0 1 1.535041-4.669082C3.198001 858.071705 3.198001 857.496065 3.389881 856.984385l163.098064-282.447471V-102.41598999999997a25.64797 25.64797 0 0 1 25.58401-25.58401h319.800125a25.64797 25.64797 0 0 1 25.58401 25.58401V575.176515zM217.144285 584.0029979999999a24.49669 24.49669 0 0 1-0.57564 2.942161 24.75253 24.75253 0 0 1-2.174641 6.523923c-0.19188 0.3198-0.19188 0.70356-0.38376 1.08732L69.908307 844.19238h563.743661L489.550031 594.5564019999999c-0.38376-0.6396-0.38376-1.471081-0.70356-2.110681a40.422736 40.422736 0 0 1-2.366521-9.721923l-0.19188-1.023361V-76.83198000000004h-268.632105V581.700437c0 0.83148-0.38376 1.471081-0.51168 2.302561z"  horiz-adv-x="1024" />

    
    <glyph glyph-name="programme" unicode="&#59067;" d="M561.152 783.36h-432a89.664 89.664 0 0 1-89.6-89.6v-704a89.728 89.728 0 0 1 89.6-89.664h640a89.792 89.792 0 0 1 89.6 89.6V488.064a25.6 25.6 0 0 1-51.2 0v-498.368a38.4 38.4 0 0 0-38.4-38.4h-640a38.4 38.4 0 0 0-38.4 38.4v704a38.4 38.4 0 0 0 38.4 38.464h432a25.6 25.6 0 1 1 0 51.2zM583.616 590.0160000000001h-268.8a25.6 25.6 0 1 1 0-51.2h268.8a25.6 25.6 0 1 1 0 51.2zM958.784 867.904a25.536 25.536 0 0 1-18.112-7.488L692.48 612.1600000000001a25.6 25.6 0 1 1 36.16-36.224l248.32 248.32A25.6 25.6 0 0 1 958.72 867.84zM647.616 348.672h-396.8a25.6 25.6 0 1 1 0-51.2h396.8a25.6 25.6 0 1 1 0 51.2zM615.616 107.32799999999997h-332.8a25.6 25.6 0 1 1 0-51.2h332.8a25.6 25.6 0 1 1 0 51.2z"  horiz-adv-x="1024" />

    
    <glyph glyph-name="postage" unicode="&#59068;" d="M602.048 499.84c39.04 0 44.288-5.312 42.432-11.712L543.808 360.96000000000004l-16.512-20.032-125.888 150.08c0.832 2.112 8.768 8.768 75.456 11.968l-3.2 20.224-204.8-3.2 3.2-20.224a121.344 121.344 0 0 0 75.008-15.744l139.52-165.056 3.2-16.256-129.728-3.2 3.2-27.648 123.136 3.2h0.192v-140.032c0-22.464-24.128-33.92-74.944-37.12l3.2-20.096h207.168v3.2l-3.2 22.656-11.072-0.192c-46.72 0-70.4 9.728-70.4 28.992l-3.136 137.856v1.536l127.36 3.2-3.2 27.648-120.96-3.2-0.832 9.92 145.216 174.592a76.032 76.032 0 0 0 57.792 16l15.552 2.944-3.2 20.224-153.088-3.2zM690.688 832H128a128 128 0 0 1-128-128v-640a128 128 0 0 1 128-128h768a128 128 0 0 1 128 128V496.832zM972.8 64a76.864 76.864 0 0 0-76.8-76.8H128A76.864 76.864 0 0 0 51.2 64V704A76.864 76.864 0 0 0 128 780.8h541.376L972.8 475.712zM348.928 718.784H260.352a147.328 147.328 0 0 1-147.2-147.2v-216.512h38.4V571.648a108.928 108.928 0 0 0 108.8 108.8h88.576z"  horiz-adv-x="1024" />

    
    <glyph glyph-name="net-tools" unicode="&#59070;" d="M512 896a512 512 0 1 1 512-512 512 512 0 0 1-512 512z m0-51.2c12.544 0 24.896-0.896 37.12-1.92a679.808 679.808 0 0 1-295.232-199.168 989.312 989.312 0 0 1-107.008 20.288A459.84 459.84 0 0 0 512 844.8zM51.2 384a457.408 457.408 0 0 0 70.72 244.224 950.72 950.72 0 0 0 104.768-17.856 681.792 681.792 0 0 1-139.392-405.12A458.24 458.24 0 0 0 51.2 384z m76.48-253.568c-1.088 10.624-2.368 21.184-2.88 32a645.696 645.696 0 0 0 140.928 438.272 945.92 945.92 0 0 0 160.192-58.368l16.448 34.688a983.36 983.36 0 0 1-148.48 55.872 642.304 642.304 0 0 0 340.544 194.88 461.952 461.952 0 0 0 264.576-194.56c0.32-8.32 0.96-16.512 0.96-24.896a655.04 655.04 0 0 0-107.328-359.232 717.312 717.312 0 0 1-94.72 139.008l-28.736-25.472a680 680 0 0 0 99.392-148.672 654.464 654.464 0 0 0-432.576-255.68 463.296 463.296 0 0 0-208.32 172.16zM512-76.79999999999995a459.328 459.328 0 0 0-102.912 11.968 690.688 690.688 0 0 1 375.808 240.768 781.376 781.376 0 0 0 41.984-127.424A458.624 458.624 0 0 0 512-76.79999999999995z m345.984 157.44a807.936 807.936 0 0 1-46.336 131.136 691.072 691.072 0 0 1 123.072 355.2 458.24 458.24 0 0 0-76.8-486.4zM700.736 480.832h1.408A141.568 141.568 0 0 1 812.8 531.8399999999999a137.152 137.152 0 0 1 28.096 112.448 34.88 34.88 0 0 1-12.352 20.8l-8.384 5.44-4.8 1.28a34.944 34.944 0 0 1-35.648-11.776l-27.328-33.664-38.4-8.64-36.864 30.08-1.6 41.92 25.6 31.552a34.624 34.624 0 0 1 4.032 37.632l-5.312 8.192-3.712 3.008a34.304 34.304 0 0 1-21.632 7.808l-2.368-0.128a135.232 135.232 0 0 1-98.752-51.52 146.176 146.176 0 0 1-24.576-128.192L318.784 314.75199999999995a142.08 142.08 0 0 1-107.648-50.88 136.768 136.768 0 0 1-27.968-112.32 34.56 34.56 0 0 1 12.288-20.992l8.448-5.504 4.864-1.152a34.88 34.88 0 0 1 35.52 11.712l27.328 33.664 38.4 8.64 36.864-30.08 1.6-41.92-25.6-31.552a34.752 34.752 0 0 1-3.84-37.952l5.312-8 3.584-2.944a34.432 34.432 0 0 1 21.76-7.744l2.304 0.064a135.616 135.616 0 0 1 98.688 51.584 145.792 145.792 0 0 1 23.36 132.288zM444.16 225.91999999999996l-12.8-15.744 5.76-19.456a107.136 107.136 0 0 0-16.32-97.152 100.8 100.8 0 0 0-63.488-37.568l20.928 25.728 9.152 11.2-0.64 14.464-1.6 41.92-0.64 17.28-13.44 10.944-36.736 30.08-14.528 11.84-18.24-4.096-38.4-8.64-13.056-2.88-8.32-10.368-22.08-27.072a97.92 97.92 0 0 0 21.184 73.28 103.168 103.168 0 0 0 78.656 36.672l17.728 0.384 11.264 13.76L578.56 573.8240000000001l12.352 15.168-5.12 18.944a107.328 107.328 0 0 0 17.28 94.08 96.64 96.64 0 0 0 62.592 36.48l-20.032-24.576-9.088-11.264 0.512-14.464 1.664-41.92 0.64-17.28 13.44-10.944 36.736-30.08 14.528-11.904 18.24 4.16 38.464 8.64 12.992 2.88 8.384 10.368 22.016 27.136a98.432 98.432 0 0 0-21.248-73.28 103.616 103.616 0 0 0-81.92-36.736l-18.496 0.192-11.648-14.4z"  horiz-adv-x="1024" />

    
    <glyph glyph-name="accounts" unicode="&#59060;" d="M921.6 459.52A153.6 153.6 0 1 1 768 305.79200000000003a153.792 153.792 0 0 1 153.6 153.6z m-268.8 0A115.2 115.2 0 1 0 768 344.192a115.328 115.328 0 0 0-115.2 115.2zM768 305.856a246.784 246.784 0 0 1-256-235.776 100.8 100.8 0 0 1 29.056-80.64 146.752 146.752 0 0 1 98.368-24.96c17.92 0 37.12 0.96 57.088 1.92a1534.4 1534.4 0 0 0 142.976 0c19.968-0.96 39.168-1.92 57.088-1.92a146.56 146.56 0 0 1 98.368 24.96 100.8 100.8 0 0 1 29.056 80.64 246.784 246.784 0 0 1-256 235.776z m201.6-287.488a113.92 113.92 0 0 0-72.96-15.424c-17.28 0-35.648 0.896-55.36 1.856a1573.12 1573.12 0 0 1-147.584-0.064c-19.008-0.896-37.184-1.792-54.272-1.792a113.984 113.984 0 0 0-73.152 15.488c-3.904 3.392-15.872 13.888-15.872 51.648A208.448 208.448 0 0 0 768 267.456a208.448 208.448 0 0 0 217.6-197.376c0-37.76-11.968-48.256-16-51.712zM492.8 539.904H115.2a19.2 19.2 0 0 1 0-38.4h377.6a19.2 19.2 0 0 1 0 38.4zM357.76 316.15999999999997H115.2a19.2 19.2 0 0 1 0-38.4h242.56a19.2 19.2 0 0 1 0 38.4zM877.696 796.8H146.24A146.432 146.432 0 0 1 0 650.56v-487.68a146.496 146.496 0 0 1 146.24-146.304h161.92a24.384 24.384 0 0 1 0 48.832h-161.92a97.664 97.664 0 0 0-97.536 97.472v487.68a97.664 97.664 0 0 0 97.536 97.536h731.52a97.664 97.664 0 0 0 97.472-97.536V515.2a24.384 24.384 0 0 1 48.768 0V650.56a146.496 146.496 0 0 1-146.304 146.24z"  horiz-adv-x="1025" />

    
    <glyph glyph-name="APP2" unicode="&#58990;" d="M262.499797 227.41324799999995a30.098059 30.098059 0 0 1 28.817291-19.851911 40.344207 40.344207 0 0 1 26.255753 9.605763 30.738443 30.738443 0 0 1 11.526916 24.334601A35.861517 35.861517 0 0 1 326.538221 255.59015399999998L202.944064 500.857314a35.221133 35.221133 0 0 1-34.580748 19.211527 35.221133 35.221133 0 0 1-33.940365-19.211527L10.188411 255.59015399999998a35.861517 35.861517 0 0 1-3.842306-16.009606 32.019212 32.019212 0 0 1 11.526916-24.3346 37.78267 37.78267 0 0 1 25.61537-9.605764 30.098059 30.098059 0 0 1 26.896137 21.773064l21.13268 44.186512h151.130678zM120.974883 330.51510900000005l46.748048 99.259556 47.388433-99.259556zM448.851609 511.743846a56.353812 56.353812 0 0 1-38.423054-12.807684 43.546128 43.546128 0 0 1-14.728838-34.580749v-226.696017q0-29.457675 32.019212-29.457675c21.13268 0 32.019212 9.605763 32.019211 29.457675V319.62857699999995h113.348009a88.373024 88.373024 0 0 1 67.880729 29.457675 103.101861 103.101861 0 0 1 0 136.401841 84.530718 84.530718 0 0 1-64.038423 29.457674z m156.253752-96.698019A41.624975 41.624975 0 0 0 595.499597 383.66700000000003a32.659596 32.659596 0 0 0-24.3346-10.886532H459.097756v64.038423c0 9.605763 3.842305 14.728837 11.526916 14.728838h99.89994a32.019212 32.019212 0 0 0 24.334601-10.886532 40.984591 40.984591 0 0 0 10.246148-25.61537zM988.695515 482.926556a84.530718 84.530718 0 0 1-64.038423 29.457675h-128.076846a56.353812 56.353812 0 0 1-38.423054-12.807685 43.546128 43.546128 0 0 1-14.728837-34.580749v-226.696017q0-29.457675 32.019211-29.457675c21.13268 0 32.019212 9.605763 32.019212 29.457675V319.62857699999995h114.628777a88.373024 88.373024 0 0 1 67.880728 29.457675 103.101861 103.101861 0 0 1 0 136.401841zM940.026313 383.66700000000003a32.659596 32.659596 0 0 0-24.3346-10.886532h-112.067241v64.038423c0 9.605763 3.842305 14.728837 11.526916 14.728838h100.540325a32.019212 32.019212 0 0 0 24.3346-10.886532 45.46728 45.46728 0 0 0 0-56.353813zM877.909043 161.45367199999998a32.019212 32.019212 0 0 1-32.019212-32.019211v-192.115269H198.461374V127.51330800000005a32.019212 32.019212 0 0 1-64.038423 0v-223.494096a32.019212 32.019212 0 0 1 32.019212-32.019212h711.46688a32.019212 32.019212 0 0 1 32.019212 32.019212V127.51330800000005a32.019212 32.019212 0 0 1-32.019212 33.940364zM167.722931 575.782269a32.019212 32.019212 0 0 1 32.019212 32.019212V831.935962h646.147688v-220.93256a32.019212 32.019212 0 1 1 64.038424 0V863.9551730000001a32.019212 32.019212 0 0 1-32.019212 32.019212H167.722931A32.019212 32.019212 0 0 1 134.422951 863.9551730000001v-256.153692a32.019212 32.019212 0 0 1 33.29998-32.019212z"  horiz-adv-x="1024" />

    
    <glyph glyph-name="cloud-hub" unicode="&#59069;" d="M806.9792 588.8a302.528 302.528 0 0 1-589.312 0 196.288 196.288 0 1 1-29.696-391.232l24.96-0.192a24.384 24.384 0 0 1 0.384 48.768l-23.936 0.128a147.52 147.52 0 1 0 41.984 290.752l26.048-6.336 3.84 26.56a253.696 253.696 0 0 0 502.08 0l3.84-26.496 26.048 6.272a147.52 147.52 0 1 0 34.816-290.944 24.384 24.384 0 1 1 0-48.768 196.352 196.352 0 1 1-21.056 391.488zM804.0352 124.28800000000001a89.472 89.472 0 0 1-88.448-77.632h-24.448a41.28 41.28 0 0 0-41.28 41.216V433.728a24.32 24.32 0 1 1-48.704 0v-345.856a90.112 90.112 0 0 1 89.984-90.048h31.36a89.536 89.536 0 1 1 81.536 126.464z m0-130.432a40.832 40.832 0 1 0 40.832 40.832 40.896 40.896 0 0 0-40.832-40.832zM409.5392 458.112a24.384 24.384 0 0 1-24.32-24.32v-345.92a41.344 41.344 0 0 0-41.344-41.216h-24.448a89.28 89.28 0 1 1-6.912-48.832h31.36a90.176 90.176 0 0 1 90.048 90.048V433.728a24.384 24.384 0 0 1-24.32 24.32z m-178.496-464.256a40.832 40.832 0 1 0 40.832 40.832 40.896 40.896 0 0 0-40.832-40.832zM525.1232 557.6320000000001a24.384 24.384 0 0 1-24.384-24.384v-439.552a24.32 24.32 0 1 1 48.704 0V533.248a24.384 24.384 0 0 1-24.32 24.32z"  horiz-adv-x="1024" />

    
    <glyph glyph-name="cross-border-line" unicode="&#59071;" d="M473.216 896a24.384 24.384 0 0 1-24.32-24.32v-342.08L228.928 309.76a90.112 90.112 0 1 1 31.104-37.888l230.4 230.4a24.32 24.32 0 0 1 7.104 17.216V871.616A24.384 24.384 0 0 1 473.28 896z m-295.68-701.184a41.28 41.28 0 1 0 41.344 41.216 41.344 41.344 0 0 0-41.344-41.216zM221.376 396.16a90.112 90.112 0 0 1 90.048 90.112 89.024 89.024 0 0 1-9.216 39.04L368.384 591.36a24.32 24.32 0 0 1 7.168 17.28v140.8a24.32 24.32 0 0 1-48.768 0v-130.752l-56.896-56.832a89.984 89.984 0 1 1-48.512-165.76z m0 131.456a41.28 41.28 0 1 0-41.344-41.344 41.344 41.344 0 0 0 41.344 41.344zM846.4 622.0799999999999a89.856 89.856 0 0 1-82.56-125.952L533.504 265.79200000000003a24.32 24.32 0 0 1-7.168-17.28v-352.128a24.32 24.32 0 1 1 48.768 0v342.016l219.84 219.84a89.984 89.984 0 1 1 51.456 163.84z m0-131.456a41.28 41.28 0 1 0 41.28 41.344 41.344 41.344 0 0 0-41.28-41.344zM802.56 371.84000000000003a90.176 90.176 0 0 1-89.984-90.112 88.96 88.96 0 0 1 9.216-38.912l-66.24-66.24-0.064-0.064a24.32 24.32 0 0 1-7.104-17.216v-140.8a24.384 24.384 0 1 1 48.832 0V149.12l56.896 56.96a89.984 89.984 0 1 1 48.512 165.696z m0-131.328a41.28 41.28 0 1 0 41.28 41.216 41.28 41.28 0 0 0-41.216-41.216zM400 145.664a23.552 23.552 0 0 1-26.24-5.44 23.552 23.552 0 0 1 0-34.112 22.848 22.848 0 0 1 7.936-5.504 24 24 0 0 1 9.088-1.856 22.144 22.144 0 0 1 17.088 7.36 24 24 0 0 1 7.36 17.024 22.08 22.08 0 0 1-7.36 17.088 18.432 18.432 0 0 1-7.872 5.44zM400 4.927999999999997a24.832 24.832 0 0 1-26.24-5.504 23.168 23.168 0 0 1-7.296-17.088 24.32 24.32 0 0 1 7.296-17.664 35.328 35.328 0 0 1 7.936-4.864 25.152 25.152 0 0 1 9.088-1.856 23.872 23.872 0 0 1 17.088 6.72 24.32 24.32 0 0 1 7.36 17.664 23.168 23.168 0 0 1-7.36 17.088 18.944 18.944 0 0 1-7.872 5.504zM614.528 772.928a22.144 22.144 0 0 1 9.088-1.92 24.512 24.512 0 0 1 17.088 7.36 22.848 22.848 0 0 1 5.504 7.936 24 24 0 0 1 1.856 9.152 24.384 24.384 0 0 1-7.36 17.664 25.088 25.088 0 0 1-7.872 4.864 23.104 23.104 0 0 1-26.24-4.864 24.32 24.32 0 0 1-7.296-17.664 24.064 24.064 0 0 1 7.296-17.088 18.368 18.368 0 0 1 7.936-5.44zM614.528 632.1279999999999a22.144 22.144 0 0 1 9.088-1.92 24.064 24.064 0 0 1 17.088 7.36 22.08 22.08 0 0 1 7.36 17.088 23.04 23.04 0 0 1-7.36 17.088 18.688 18.688 0 0 1-7.872 5.44 24.384 24.384 0 0 1-26.24-5.44 23.04 23.04 0 0 1-7.296-17.088 22.08 22.08 0 0 1 7.296-17.088 18.304 18.304 0 0 1 7.936-5.44z"  horiz-adv-x="1024" />

    
    <glyph glyph-name="ding" unicode="&#60481;" d="M557.728 208v-288.384H466.24V208H227.52c-9.6 0-18.048 3.712-24.96 11.264A37.824 37.824 0 0 0 192 246.01599999999996c0 48.768 14.432 92.704 43.584 131.84 29.12 38.976 61.92 58.56 98.56 58.56V695.488c-19.296 0-35.84 7.552-50.048 22.656a76.16 76.16 0 0 0-21.12 53.6c0 20.672 7.04 38.4 21.12 53.6 13.984 14.976 30.72 22.656 50.048 22.656h355.584c19.296 0 35.84-7.552 50.048-22.656 13.984-15.104 21.152-32.928 21.152-53.6 0-20.672-7.04-38.4-21.12-53.6-14.112-15.232-30.784-22.656-50.08-22.656v-258.944c36.64 0 69.568-19.584 98.56-58.56A215.424 215.424 0 0 0 832 246.01599999999996c0-10.272-3.456-19.328-10.528-26.752-7.04-7.424-15.36-11.264-24.96-11.264H557.76z"  horiz-adv-x="1024" />

    
    <glyph glyph-name="download" unicode="&#59072;" d="M998.4 320a25.6 25.6 0 0 1-25.6-25.6v-371.2H51.2V294.4a25.6 25.6 0 0 1-51.2 0V-128h1024V294.4a25.6 25.6 0 0 1-25.6 25.6zM537.6 896a25.6 25.6 0 0 1-25.6-25.6v-718.976L338.304 325.12a25.6 25.6 0 1 1-36.224-36.224l217.408-217.408a25.664 25.664 0 0 1 36.224 0l217.408 217.408a25.6 25.6 0 0 1-36.224 36.224L563.2 151.42399999999998V870.4a25.6 25.6 0 0 1-25.6 25.6z"  horiz-adv-x="1024" />

    
    <glyph glyph-name="spread" unicode="&#59073;" d="M512 896a512 512 0 1 1 512-512 512 512 0 0 1-512 512z m0-972.8A460.8 460.8 0 1 0 972.8 384 461.312 461.312 0 0 0 512-76.79999999999995zM512 640a25.6 25.6 0 0 1-25.6-25.6v-204.8H281.6a25.6 25.6 0 1 1 0-51.2h204.8v-204.8a25.6 25.6 0 0 1 51.2 0V358.4h204.8a25.6 25.6 0 1 1 0 51.2H537.6V614.4A25.6 25.6 0 0 1 512 640z"  horiz-adv-x="1024" />

    
    <glyph glyph-name="retract" unicode="&#59074;" d="M512 896a512 512 0 1 1 512-512 512 512 0 0 1-512 512z m0-972.8A460.8 460.8 0 1 0 972.8 384 461.312 461.312 0 0 0 512-76.79999999999995zM742.4 409.6H281.6a25.6 25.6 0 1 1 0-51.2h460.8a25.6 25.6 0 1 1 0 51.2z"  horiz-adv-x="1024" />

    
    <glyph glyph-name="alarm" unicode="&#59075;" d="M973.312 845.12A163.008 163.008 0 0 1 761.088 855.68a325.248 325.248 0 0 1-320.256-81.408L212.032 545.408H38.784a25.6 25.6 0 0 1-18.048-43.648l609.152-609.28a23.616 23.616 0 0 1 2.368-1.6 22.272 22.272 0 0 1 15.744-5.888 25.728 25.728 0 0 1 9.792 1.92 25.152 25.152 0 0 1 6.016 4.032 6.912 6.912 0 0 1 3.84 3.776 22.528 22.528 0 0 1 5.952 15.872V83.84000000000003L902.4 312.64a325.568 325.568 0 0 1 81.472 320.192 158.976 158.976 0 0 1-10.56 212.288z m-36.288-36.16a108.288 108.288 0 0 0 23.68-117.248 321.856 321.856 0 0 1-58.24 82.56 322.368 322.368 0 0 1-81.92 57.92 110.848 110.848 0 0 0 116.48-23.232z m-70.848-460.16l-236.288-236.16a24.192 24.192 0 0 1-1.536-2.368 25.216 25.216 0 0 1-3.968-5.952 25.728 25.728 0 0 1-2.048-9.856v-121.984L100.608 494.208h122.048a25.92 25.92 0 0 1 18.112 7.552l236.224 236.288a275.2 275.2 0 0 0 389.184-389.184zM643.84 701.568a230.848 230.848 0 0 1-129.92-65.472L407.488 529.664a25.6 25.6 0 1 1 36.16-36.16l106.496 106.432a180.096 180.096 0 0 0 101.376 51.008 25.6 25.6 0 0 1 21.504 29.056 25.92 25.92 0 0 1-29.184 21.568zM258.496 166.52800000000002L187.52 95.67999999999995a25.6 25.6 0 1 1 36.224-36.288l70.848 70.912a25.6 25.6 0 1 1-36.16 36.224zM432 24.384000000000015a25.984 25.984 0 0 1-31.36-18.112l-25.984-96.832a25.6 25.6 0 0 1 18.112-31.36 27.072 27.072 0 0 1 6.656-0.896 25.6 25.6 0 0 1 24.704 19.008l25.92 96.832a25.6 25.6 0 0 1-18.112 31.36zM121.216 321.91999999999996l-96.832-25.92a25.6 25.6 0 0 1 6.592-50.368 27.072 27.072 0 0 1 6.656 0.832l96.832 25.984a25.6 25.6 0 0 1-13.248 49.472z"  horiz-adv-x="1024" />

    
    <glyph glyph-name="exchange" unicode="&#59076;" d="M390.08 789.12a281.152 281.152 0 0 1-279.936-265.28H63.232l70.848-72.96 70.848 72.96H161.28A230.016 230.016 0 0 0 390.08 737.92a25.6 25.6 0 1 1 0 51.2zM640.768 843.968v-448h320v448z m280-410.624h-240V806.656h240zM766.592 729.408h68.288c9.408 0 17.024 5.76 17.024 12.8s-7.68 12.8-17.024 12.8h-68.288c-9.408 0-17.088-5.76-17.088-12.8s7.68-12.8 17.088-12.8zM766.592 622.336h68.288c9.408 0 17.024 5.76 17.024 12.8s-7.68 12.8-17.024 12.8h-68.288c-9.408 0-17.088-5.76-17.088-12.8s7.68-12.8 17.088-12.8zM800.768 528m-38.4 0a38.4 38.4 0 1 1 76.8 0 38.4 38.4 0 1 1-76.8 0ZM633.92-21.120000000000005a281.152 281.152 0 0 1 279.936 265.344h46.912l-70.848 72.896-70.848-72.96h43.584a230.016 230.016 0 0 0-228.736-214.08 25.6 25.6 0 0 1 0-51.2zM63.232 371.96799999999996v-448h320v448z m280-410.624h-240V334.65599999999995h240zM189.12 257.408H257.28c9.408 0 17.088 5.76 17.088 12.8s-7.68 12.8-17.088 12.8H189.12c-9.408 0-17.088-5.76-17.088-12.8s7.68-12.8 17.088-12.8zM189.12 150.336H257.28c9.408 0 17.088 5.76 17.088 12.8s-7.68 12.8-17.088 12.8H189.12c-9.408 0-17.088-5.76-17.088-12.8s7.68-12.8 17.088-12.8zM223.232 56m-38.4 0a38.4 38.4 0 1 1 76.8 0 38.4 38.4 0 1 1-76.8 0Z"  horiz-adv-x="1024" />

    
    <glyph glyph-name="key" unicode="&#59077;" d="M768 640a255.168 255.168 0 0 1-252.672-223.04H25.6a25.6 25.6 0 1 1 0-51.2h68.096v-147.2a25.6 25.6 0 0 1 51.2 0v147.2H264.32v-115.2a25.6 25.6 0 0 1 51.2 0v115.2H513.92A255.424 255.424 0 1 1 768 640z m0-460.8A204.8 204.8 0 1 0 972.8 384a205.056 205.056 0 0 0-204.8-204.8z"  horiz-adv-x="1024" />

    
    <glyph glyph-name="gateway" unicode="&#59079;" d="M639.936 393.344h-28.416V440.32a99.52 99.52 0 0 1-199.04 0v-46.976h-28.416a30.336 30.336 0 0 1-32.064-28.16v-202.048a30.336 30.336 0 0 1 32.064-28.16H640a30.336 30.336 0 0 1 32.064 28.16V365.18399999999997a30.336 30.336 0 0 1-32.064 28.16zM444.48 440.32a67.52 67.52 0 0 0 135.04 0v-46.72h-135.04zM640 167.03999999999996h-0.064L384 167.29600000000005V361.34400000000005h256zM960 656.704h-154.368V835.392a25.6 25.6 0 0 1-51.2 0v-178.688H269.504V835.392a25.6 25.6 0 0 1-51.2 0v-178.688H64a64 64 0 0 1-64-64v-512a64 64 0 0 1 64-64h38.4V0a89.408 89.408 0 0 1 84.992-92.992h649.216A89.408 89.408 0 0 1 921.6 0v16.704h38.4a64 64 0 0 1 64 64v512a64 64 0 0 1-64 64zM870.4 0a38.4 38.4 0 0 0-33.792-41.728H187.392A38.4 38.4 0 0 0 153.6 0v16.704h716.8z m102.4 80.704a12.8 12.8 0 0 0-12.8-12.8H64a12.8 12.8 0 0 0-12.8 12.8v512a12.8 12.8 0 0 0 12.8 12.8h896a12.8 12.8 0 0 0 12.8-12.8z"  horiz-adv-x="1024" />

    
    <glyph glyph-name="physical_interface" unicode="&#59080;" d="M1002.24 633.088a32 32 0 0 1-45.184 0l-166.848-166.784-195.904 195.968 166.72 166.784a32 32 0 1 1-45.248 45.248L549.12 707.52l-105.728 105.6-135.68-135.68a348.672 348.672 0 0 1-20.48-472.96L21.76-61.05600000000004a32 32 0 1 1 45.248-45.248l265.536 265.536a348.608 348.608 0 0 1 472.96 20.416l135.68 135.744-105.6 105.664 166.784 166.784a32 32 0 0 1 0 45.248z m-242.048-408.192a288 288 0 0 0-407.36 407.296l90.496 90.496 407.36-407.296z"  horiz-adv-x="1024" />

    
    <glyph glyph-name="CDN" unicode="&#59078;" d="M911.284411 783.296552c-166.977541 148.694395-632.750269 148.694395-799.727811 0-148.694395-166.977541-148.694395-632.750269 0-799.72781 166.977541-148.758323 632.750269-148.758323 799.727811 0 148.694395 166.977541 148.758323 632.750269 0 799.72781z m-32.027469-767.764269c-149.845083-129.96376-585.82779-129.96376-735.672873 0-130.027687 149.90901-130.027687 585.891717 0 735.736801C293.429152 881.296771 729.411859 881.296771 879.256942 751.269084c130.027687-149.845083 130.027687-585.82779 0-735.672873zM771.348026 563.451313a79.908854 79.908854 0 1 1-79.908854 79.908854 77.671406 77.671406 0 0 1 12.465781-40.274062l-116.986562-116.986562a125.936354 125.936354 0 0 1-151.059698 0l-116.986562 116.922635a77.671406 77.671406 0 0 1 12.529708 40.274062 79.908854 79.908854 0 1 1-79.908854-79.908854 77.671406 77.671406 0 0 1 40.274063 12.529709l116.986562-116.986563a125.936354 125.936354 0 0 1 0-151.059697l-116.986562-116.986562a77.671406 77.671406 0 0 1-40.274063 12.529708 79.908854 79.908854 0 1 1 79.908854-79.908854 77.671406 77.671406 0 0 1-12.465781 40.274062l116.922635 116.986563a125.936354 125.936354 0 0 1 151.123625 0l116.986562-116.986563a77.671406 77.671406 0 0 1-12.529708-40.274062 79.908854 79.908854 0 1 1 79.908854 79.908854 77.671406 77.671406 0 0 1-40.33799-12.529708L614.087401 307.87083500000006a125.936354 125.936354 0 0 1 0 151.123624l116.986562 116.922636a77.671406 77.671406 0 0 1 40.274063-12.465782z m0 121.461458a41.552604 41.552604 0 1 0-41.552605-41.552604 41.552604 41.552604 0 0 0 41.552605 41.552604z m-519.855041-83.105208a41.552604 41.552604 0 1 0 41.552604 41.552604 41.552604 41.552604 0 0 0-41.552604-41.552604z m0-519.85504a41.552604 41.552604 0 1 0 41.552604 41.552604 41.552604 41.552604 0 0 0-41.552604-41.552604zM421.922589 383.432647a89.497916 89.497916 0 1 0 89.497916-89.497916 89.625771 89.625771 0 0 0-89.497916 89.497916z m349.425437-218.374916a41.552604 41.552604 0 1 0-41.552605-41.552604 41.552604 41.552604 0 0 0 41.552605 41.552604z"  horiz-adv-x="1024" />

    
    <glyph glyph-name="trusteeship" unicode="&#59081;" d="M864 869.888h-704v-329.344h704z m-44.8-278.144H204.8V818.688h614.4zM582.592 753.28h-96v-96h96zM395.072 753.28h-96v-96h96zM582.592 391.872h-96v-96h96zM395.072 391.872h-96v-96h96zM1009.6 301.696a83.328 83.328 0 0 1-65.536 28.992 133.76 133.76 0 0 1-69.888-22.272c-2.944-1.792-6.784-4.48-10.176-6.848V508.544h-704v-316.992C86.464 156.736 14.976 121.40800000000002 0 116.48000000000002v-217.984h530.304c9.664-0.192 19.968-0.448 30.592-0.448a187.264 187.264 0 0 1 110.464 27.712c2.176 1.472 294.016 230.016 331.136 272.832a84.16 84.16 0 0 1 7.104 103.04zM204.8 457.344h614.4v-188.928c-14.912-11.712-30.784-24.448-47.36-38.016H498.624a67.392 67.392 0 0 1-74.88 61.056h-1.28a516.224 516.224 0 0 1-157.44-51.904c-6.464-2.752-13.76-6.08-20.736-9.152H204.8z m504.832-278.144c2.56 2.112-33.92-27.968-51.328-41.728-14.336-11.392-27.136-20.736-34.368-26.496a73.536 73.536 0 0 0-59.904-21.44h-3.648l-49.92-0.896H508.16c-38.336-0.32-66.368-2.048-82.752-2.048-14.912 0-20.224 1.472-14.848 6.784 27.264 26.88 21.44 22.656 38.4 40.192a270.912 270.912 0 0 1 37.824 45.632z m254.208 52.992c-29.44-33.92-287.744-238.336-321.536-264.192a140.16 140.16 0 0 0-81.408-18.688c-7.04 0-13.888 0.128-20.48 0.256l-10.112 0.192H51.2v133.248c15.232 7.04 35.968 16.96 64.576 30.72 53.568 25.664 120.32 57.664 171.52 79.616a518.848 518.848 0 0 0 136.512 46.912c22.848 0 23.68-7.296 24.768-18.112 1.408-13.952-20.48-36.48-36.48-52.992-7.36-7.552-10.88-11.52-14.08-15.168a459.136 459.136 0 0 0-23.552-24.32 54.144 54.144 0 0 1-13.248-59.712 62.848 62.848 0 0 1 64.128-34.56c7.424 0 17.152 0.32 28.992 0.768 14.592 0.512 32.704 1.088 53.76 1.28h3.392l48 0.96 4.544-0.064a117.696 117.696 0 0 1 85.312 27.52l6.4 5.056 10.688 8.128c6.784 5.12 14.976 11.392 23.68 18.304 20.672 16.384 45.44 36.8 71.168 58.048 52.48 43.328 111.872 92.352 139.648 109.376a85.12 85.12 0 0 0 43.136 14.72 36.224 36.224 0 0 0 24.32-8.128 33.664 33.664 0 0 0-4.544-39.168z"  horiz-adv-x="1024" />

    
    <glyph glyph-name="index-port-group" unicode="&#59082;" d="M0 896v-1024h1024V896z m972.8-972.8H51.2V844.8h921.6zM216 654.592a43.968 43.968 0 0 1 35.84 19.2h95.616l183.168-126.72h241.6a43.968 43.968 0 0 1 35.776-19.2 44.8 44.8 0 1 1 0 89.6 43.968 43.968 0 0 1-35.84-19.2H546.688l-183.168 126.72H251.776a43.968 43.968 0 0 1-35.776 19.2 44.8 44.8 0 1 1 0-89.6zM216 23.807999999999993a43.968 43.968 0 0 1 35.776 19.2h111.68l183.168 126.72h225.6a43.968 43.968 0 0 1 35.776-19.2 44.8 44.8 0 1 1 0 89.6 43.968 43.968 0 0 1-35.776-19.2H530.624l-183.168-126.72H251.776a43.968 43.968 0 0 1-35.776 19.2 44.8 44.8 0 0 1 0-89.6zM476.16 409.6H258.496a43.968 43.968 0 0 1-35.776 19.2 44.8 44.8 0 0 1 0-89.6 43.968 43.968 0 0 1 35.84 19.2H476.16A43.968 43.968 0 0 1 512 339.20000000000005a44.8 44.8 0 0 1 0 89.6 43.968 43.968 0 0 1-35.84-19.2z"  horiz-adv-x="1024" />

    
    <glyph glyph-name="calendar-right" unicode="&#59083;" d="M725.824 384l-232.128-236.544a25.6 25.6 0 0 1 36.608-35.84l246.08 250.816a30.464 30.464 0 0 1 0.192 42.88L530.304 656.3199999999999a25.6 25.6 0 0 1-36.608-35.84zM478.08 384l-232.064-236.544a25.6 25.6 0 1 1 36.48-35.84l246.4 250.944a30.656 30.656 0 0 1 0 42.752l-246.4 251.008a25.6 25.6 0 1 1-36.48-35.84z"  horiz-adv-x="1024" />

    
    <glyph glyph-name="calendar-left" unicode="&#59084;" d="M298.24 384l232.064 236.48a25.6 25.6 0 0 1-36.608 35.84L247.68 405.504a30.464 30.464 0 0 1-0.192-42.88l246.272-251.008a25.6 25.6 0 0 1 36.608 35.84zM545.92 384l232.064 236.48a25.6 25.6 0 1 1-36.48 35.84l-246.4-250.944a30.656 30.656 0 0 1 0-42.752l246.4-251.008a25.6 25.6 0 0 1 36.48 35.84z"  horiz-adv-x="1024" />

    
    <glyph glyph-name="calendar-single-right" unicode="&#59085;" d="M601.984 384L369.92 147.45600000000002a25.6 25.6 0 1 1 36.48-35.84l246.4 250.88a30.656 30.656 0 0 1 0 42.752L406.4 656.3199999999999a25.6 25.6 0 1 1-36.48-35.84z"  horiz-adv-x="1024" />

    
    <glyph glyph-name="calendar-single-left" unicode="&#59086;" d="M422.016 384l232.064 236.48a25.6 25.6 0 1 1-36.48 35.84L371.2 405.504a30.656 30.656 0 0 1 0-42.816l246.4-251.008a25.6 25.6 0 0 1 36.48 35.84z"  horiz-adv-x="1024" />

    
    <glyph glyph-name="clock" unicode="&#59087;" d="M512 896a512 512 0 1 1 512-512 512 512 0 0 1-512 512z m0-972.8A460.8 460.8 0 1 0 972.8 384 461.312 461.312 0 0 0 512-76.79999999999995zM537.6 418.688V677.056a25.6 25.6 0 1 1-51.2 0v-268.928a25.472 25.472 0 0 1 7.488-18.176L638.72 245.12a25.6 25.6 0 0 1 36.224 36.224z"  horiz-adv-x="1024" />

    
    <glyph glyph-name="cxp-cloud" unicode="&#59088;" d="M801.344 510.08a212.288 212.288 0 0 1 2.816 30.592 292.16 292.16 0 0 1-584.32 0 221.76 221.76 0 0 1 2.752-30.592A291.136 291.136 0 0 1 292.16-64h439.68a291.136 291.136 0 0 1 69.504 574.08z"  horiz-adv-x="1024" />

    
    <glyph glyph-name="cxp-logout" unicode="&#59089;" d="M106.112 789.888h608.064V896H0v-1024h714.176v106.176H106.112V789.888zM1007.168 424.704h-0.064l-190.08 190.08a57.6 57.6 0 1 1-81.408-81.408L827.328 441.6H321.92a57.6 57.6 0 0 1 0-115.2h505.408l-91.776-91.776a57.6 57.6 0 0 1 81.536-81.408l189.952 190.016a57.6 57.6 0 0 1 0.128 81.472z"  horiz-adv-x="1024" />

    
    <glyph glyph-name="cxp-phone" unicode="&#59090;" d="M144.253043 895.9968a46.078646 46.078646 0 0 1-32.831036-13.247611L62.207453 833.790627a46.65463 46.65463 0 0 1-6.719803-8.575748l-2.559925-4.351872a222.713458 222.713458 0 0 1-36.41493-60.670218C-42.621468 611.845147 61.439475 351.820785 258.681681 155.15456200000006 396.277639 17.942592999999988 626.03089-127.97312099999999 780.650348-127.97312099999999h0.063999a291.191446 291.191446 0 0 1 107.324847 19.007442 221.94548 221.94548 0 0 1 75.517782 48.638571l46.718627 46.526633h0.127996a46.590631 46.590631 0 0 1-0.191994 65.982062l-214.201708 213.753721a47.99859 47.99859 0 0 1-66.238054 0l-82.877565-82.877565a140.155883 140.155883 0 0 0-7.487781-0.191995 322.422529 322.422529 0 0 0-222.073476 108.412816 310.710873 310.710873 0 0 0-108.156823 229.43326l82.557575 82.365581a46.718628 46.718628 0 0 1 0 65.918063L177.532065 882.813187A47.038618 47.038618 0 0 1 144.253043 895.9968z"  horiz-adv-x="1024" />

    
    <glyph glyph-name="cxp-user" unicode="&#59091;" d="M511.936429 653.388432m-237.057345 0a237.057345 237.057345 0 1 1 474.114689 0 237.057345 237.057345 0 1 1-474.114689 0ZM512 399.993265a380.855605 380.855605 0 0 1-395.032003-363.818499 155.558949 155.558949 0 0 1 44.81776-124.409016A226.50451 226.50451 0 0 1 313.594-126.75845300000003c27.717083 0 57.214162 1.46214 88.10981 2.92428a2455.949689 2455.949689 0 0 0 220.59238 0c101.269067-4.831418 188.870306-9.154266 239.918053 35.599923a155.622521 155.622521 0 0 1 44.81776 124.345445A380.855605 380.855605 0 0 1 512 399.993265z"  horiz-adv-x="1024" />

    
    <glyph glyph-name="cxp-network" unicode="&#59092;" d="M759.27758 170.43262100000004a74.685433 74.685433 0 0 0-83.005147-18.815353 805.988294 805.988294 0 0 0-88.572955-77.501336 74.429441 74.429441 0 0 0 2.559912-12.415573c0-1.087963-0.639978-1.983932-0.639978-3.071894a762.46979 762.46979 0 0 1 292.469946-8.44771c7.167754 1.215958 14.079516 3.007897 21.24727 4.35185a514.670308 514.670308 0 0 1 40.958592 56.318065c-9.535672 1.663943-19.007347 3.007897-28.479021 5.119824a725.799051 725.799051 0 0 0-156.538619 54.462127zM163.970044 419.960044a74.877426 74.877426 0 0 0 11.135617-110.716194 763.94174 763.94174 0 0 1 273.654593-204.024987 75.517404 75.517404 0 0 0 120.891844 8.319714 765.605682 765.605682 0 0 1 72.44551 64.061798 69.629606 69.629606 0 0 0-12.159582 71.869529A724.775086 724.775086 0 0 0 366.203092 658.543843a76.413373 76.413373 0 0 0-28.543019 8.319714 742.630472 742.630472 0 0 1-173.690029-246.903513zM451.768151 735.341203a77.629331 77.629331 0 0 0-43.518504-69.24562 682.216549 682.216549 0 0 1 246.327532-381.810875 72.573505 72.573505 0 0 0 83.133142 9.407676A761.573821 761.573821 0 0 1 867.817849 719.341753c0 11.135617-0.767974 22.079241-1.279956 33.086862A513.262357 513.262357 0 0 1 710.895243 855.785062a736.29469 736.29469 0 0 1-262.646971-102.908462 75.133417 75.133417 0 0 0 3.583877-17.599395zM909.864404 705.582226a803.876367 803.876367 0 0 0-140.79516-441.584821 76.029386 76.029386 0 0 0 12.223579-39.55064 74.557437 74.557437 0 0 0-3.19989-15.807457 682.664533 682.664533 0 0 1 146.874951-51.006247c13.95152-3.071894 27.967039-5.375815 41.91856-7.615738a509.1025 509.1025 0 0 1-57.02204 555.500905zM631.793962 881.256187a494.383006 494.383006 0 0 1-239.671761 0 682.216549 682.216549 0 0 1-2.239923-71.037558 77.501336 77.501336 0 0 0 38.526676-19.327336A777.509273 777.509273 0 0 0 631.793962 881.256187zM124.483401 436.087489a785.445 785.445 0 0 0 182.585724 260.471047 76.029386 76.029386 0 0 0-11.775595 38.718669 77.629331 77.629331 0 0 0 52.030211 72.957492c-0.383987 20.095309 0.191993 40.318614 1.471949 60.605917A513.774339 513.774339 0 0 1 32.838551 562.6751380000001a761.765814 761.765814 0 0 1 57.086038-130.299521 77.053351 77.053351 0 0 0 26.431092 5.311817 73.213483 73.213483 0 0 0 8.12772-1.599945zM38.150369 359.482123a76.541369 76.541369 0 0 0 17.087412 46.718394 803.236389 803.236389 0 0 0-42.878526 88.44496 508.078535 508.078535 0 0 1 49.598295-354.547813 783.973051 783.973051 0 0 0 17.023415 151.994775 77.309342 77.309342 0 0 0-40.830596 67.389684zM433.784769 61.70035900000005c0 1.023965 0.511982 1.919934 0.57598 2.879901a807.908228 807.908228 0 0 0-295.797832 221.176397 76.605367 76.605367 0 0 0-18.047379-3.647874 742.374481 742.374481 0 0 1-15.615464-193.913335c0.255991-5.119824 0.959967-10.17565 1.343954-15.231476a515.822269 515.822269 0 0 1 112.956117-108.348276 759.781882 759.781882 0 0 1 220.344426 68.605642 77.437338 77.437338 0 0 0-5.759802 28.479021zM575.283905 18.18185500000004a73.59747 73.59747 0 0 0-107.964289-18.943349 800.612479 800.612479 0 0 0-192.633378-68.477646 508.782511 508.782511 0 0 1 578.924099 72.957492 813.412039 813.412039 0 0 0-97.404651-6.591773 802.660409 802.660409 0 0 0-180.921781 21.119274z"  horiz-adv-x="1024" />

    
    <glyph glyph-name="round-build-px" unicode="&#59099;" d="M515.84 771.84C430.08 857.6 301.653333 875.093333 198.4 824.746667L353.28 669.866667c16.64-16.64 16.64-43.52 0-60.16L285.44 541.866667c-16.64-17.066667-43.52-17.066667-60.16 0L70.4 696.746667C20.48 593.066667 37.973333 465.493333 123.733333 379.733333a277.632 277.632 0 0 1 293.973334-63.146666l339.626666-339.626667a111.488 111.488 0 0 1 158.293334 0 111.488 111.488 0 0 1 0 158.293333L577.706667 473.6c39.253333 99.84 18.773333 217.6-61.866667 298.24z"  horiz-adv-x="1024" />

    
    <glyph glyph-name="route" unicode="&#59093;" d="M512 896a512 512 0 1 1 512-512 512 512 0 0 1-512 512z m0-972.8A460.8 460.8 0 1 0 972.8 384 461.312 461.312 0 0 0 512-76.79999999999995zM674.624 600.896L523.968 450.304l54.336-54.336 150.592 150.656 40.768-40.768 49.664 185.472-185.472-49.664 40.768-40.768zM445.696 372.03200000000004l-150.592-150.656-40.768 40.768-49.664-185.472 185.472 49.664-40.768 40.768 150.656 150.592-54.336 54.336zM728.896 221.37599999999998L578.304 372.03200000000004l-54.336-54.336 150.656-150.592-40.768-40.768 185.472-49.664-49.664 185.472-40.768-40.768zM390.144 641.664l-185.472 49.664 49.664-185.472 40.768 40.768 150.592-150.656 54.336 54.336-150.656 150.592 40.768 40.768z"  horiz-adv-x="1024" />

    
    </font>
</defs>
</svg>
